<?xml version="1.0" standalone="no"?>
<!DOCTYPE svg PUBLIC "-//W3C//DTD SVG 1.1//EN" "http://www.w3.org/Graphics/SVG/1.1/DTD/svg11.dtd" >
<svg xmlns="http://www.w3.org/2000/svg">
<metadata></metadata>
<defs>
<font id="euclid_flexitalic" horiz-adv-x="1241" >
<font-face units-per-em="2048" ascent="1651" descent="-397" />
<missing-glyph horiz-adv-x="516" />
<glyph horiz-adv-x="0" />
<glyph horiz-adv-x="682" />
<glyph unicode=" "  horiz-adv-x="516" />
<glyph unicode="&#x09;" horiz-adv-x="516" />
<glyph unicode="&#xa0;" horiz-adv-x="516" />
<glyph unicode="!" horiz-adv-x="530" d="M213 246h205q26 -29 26 -90q0 -76 -50.5 -124t-123.5 -48q-54 0 -91.5 35.5t-37.5 86.5q0 81 72 140zM289 440l65 473l115 541h180l-114 -541l-136 -473h-110z" />
<glyph unicode="&#x22;" horiz-adv-x="823" d="M381 934v520h156v-520h-156zM795 934v520h155v-520h-155z" />
<glyph unicode="#" horiz-adv-x="1703" d="M965 0l129 412h-369l-129 -412h-158l129 412h-243v143h288l111 354h-248v144h293l125 401h158l-125 -401h368l125 401h156l-125 -401h244v-144h-289l-111 -354h246v-143h-291l-129 -412h-155zM881 909l-111 -354h369l110 354h-368z" />
<glyph unicode="$" horiz-adv-x="1095" d="M422 -180l37 178q-117 27 -207 98t-141 170l157 96q43 -93 128 -154t210 -61q141 0 220 67.5t79 164.5q0 78 -44.5 138.5t-137.5 117.5l-141 86q-121 89 -180.5 180t-59.5 205q0 162 122 261.5t308 102.5l37 164h152l-39 -180q181 -47 282 -209l-149 -94q-45 78 -121 118 t-168 40q-107 0 -181.5 -52.5t-70.5 -150.5q3 -72 42.5 -126t125.5 -116l141 -88q60 -43 102.5 -81.5t80 -86.5t56.5 -103.5t19 -117.5q0 -82 -32 -154t-90.5 -126.5t-149 -87.5t-201.5 -35l-35 -164h-151z" />
<glyph unicode="%" horiz-adv-x="882" d="M336 250q0 -65 42 -104.5t103 -39.5q71 0 119.5 50t48.5 125q0 65 -41.5 104t-101.5 39q-71 0 -120.5 -50t-49.5 -124zM778 291q0 -128 -90 -217.5t-221 -89.5q-119 0 -188.5 75t-69.5 181q0 128 89 217.5t220 89.5q119 0 189.5 -75.5t70.5 -180.5zM532 1169 q0 -65 42 -104t102 -39q71 0 120.5 49t49.5 123q0 66 -42 105.5t-102 39.5q-71 0 -120.5 -50t-49.5 -124zM975 1210q0 -128 -90 -217.5t-221 -89.5q-119 0 -188.5 75t-69.5 181q0 128 89 217.5t220 89.5q119 0 189.5 -75.5t70.5 -180.5zM295 655l31 144h575l-31 -144h-575z " />
<glyph unicode="&#x26;" horiz-adv-x="1257" d="M1044 0l-63 209q-58 -105 -162.5 -165t-249.5 -60q-97 0 -177.5 34.5t-132.5 93t-80.5 133.5t-28.5 158q0 130 62 243t181 184t269 71q59 0 118 -16l-172 569h748l-33 -160h-489l391 -1294h-181zM326 420q0 -116 72 -193t186 -77q137 0 227 93t90 226q0 114 -72 191 t-186 77q-136 0 -226.5 -93t-90.5 -224z" />
<glyph unicode="'" horiz-adv-x="409" d="M381 934v520h156v-520h-156z" />
<glyph unicode="(" horiz-adv-x="524" d="M285 -291q-76 270 -76 522q0 680 461 1293l141 -66q-228 -311 -335 -602t-107 -598q0 -252 63 -489z" />
<glyph unicode=")" horiz-adv-x="522" d="M500 1524q75 -266 75 -523q0 -681 -460 -1292l-142 66q228 312 335.5 603t107.5 597q0 248 -64 489z" />
<glyph unicode="*" horiz-adv-x="925" d="M874 748l-165 229l-168 -227l-107 71l166 230l-270 92l39 127l274 -92v276h129v-274l272 88l39 -123l-268 -90l168 -232z" />
<glyph unicode="+" horiz-adv-x="1318" d="M332 492v143h375v364h145v-364h375v-143h-375v-373h-145v373h-375z" />
<glyph unicode="," horiz-adv-x="516" d="M86 -291l152 291h-105l53 252h250l-55 -254l-178 -289h-117z" />
<glyph unicode="-" horiz-adv-x="686" d="M195 469l38 182h498l-39 -182h-497z" />
<glyph unicode="." horiz-adv-x="538" d="M451 135q0 -63 -44.5 -107t-107.5 -44q-62 0 -107 44t-45 107t45 107.5t107 44.5q63 0 107.5 -44.5t44.5 -107.5z" />
<glyph unicode="/" horiz-adv-x="759" d="M102 0l701 1454h164l-699 -1454h-166z" />
<glyph unicode="0" horiz-adv-x="1658" d="M403 682q0 -143 58 -262t176.5 -193.5t277.5 -74.5q142 0 263 49.5t202 134.5t126.5 197.5t45.5 238.5q0 107 -34 202.5t-97 169t-161 116.5t-218 43q-142 0 -263 -49.5t-203 -134t-127.5 -198t-45.5 -239.5zM1735 788q0 -123 -36.5 -241t-109 -219.5t-172 -178.5 t-233.5 -121t-285 -44q-127 0 -237 37t-190 101.5t-137 150.5t-85.5 186t-28.5 207q0 123 36.5 241t109 219.5t172 178.5t233.5 121t285 44q127 0 237 -37t190 -101.5t137 -150.5t85.5 -186t28.5 -207z" />
<glyph unicode="1" horiz-adv-x="569" d="M197 0l274 1292l215 178l-313 -1470h-176z" />
<glyph unicode="2" horiz-adv-x="1144" d="M51 0l676 614q-164 0 -269.5 109.5t-105.5 277.5q0 91 34.5 176t96 150t153 104t198.5 39q92 0 168 -32.5t125 -87.5t75.5 -126t26.5 -149q0 -93 -46.5 -199.5t-138.5 -191.5l-569 -518h590l-35 -166h-979zM524 1018q0 -105 67.5 -175.5t170.5 -70.5q130 0 212.5 83.5 t82.5 207.5q0 104 -66.5 172t-171.5 68q-129 0 -212 -82.5t-83 -202.5z" />
<glyph unicode="3" horiz-adv-x="1038" d="M1055 496q0 -102 -33.5 -193t-97 -163t-165.5 -114t-229 -42q-141 0 -245.5 59.5t-157.5 159.5l160 90q34 -68 101 -104.5t159 -36.5q146 0 235.5 93t89.5 234q0 126 -81 205.5t-228 79.5h-100l411 524h-503l35 166h794l-442 -563q141 -40 219 -148t78 -247z" />
<glyph unicode="4" horiz-adv-x="1206" d="M989 0h-176l86 401h-821l1222 1069l-192 -905h190l-34 -164h-189zM489 565h445l100 477z" />
<glyph unicode="5" horiz-adv-x="1107" d="M1112 496q0 -224 -143 -368t-389 -144q-137 0 -243 62.5t-157 164.5l162 88q31 -68 99.5 -107.5t154.5 -39.5q151 0 242.5 93.5t91.5 235.5q0 122 -75 201.5t-196 79.5q-147 0 -237 -96l-113 57l164 731h729l-35 -166h-557l-86 -387q73 25 152 25q101 0 185 -35.5 t138 -96t83.5 -137.5t29.5 -161z" />
<glyph unicode="6" horiz-adv-x="1093" d="M1124 496q0 -142 -62.5 -257.5t-185 -185t-284.5 -69.5q-100 0 -184 35.5t-138 95.5t-84 137.5t-30 161.5q0 105 40.5 197t131.5 206l512 637h219l-434 -534q34 6 63 6q100 0 184 -35.5t138 -95.5t84 -137.5t30 -161.5zM338 430q0 -123 74 -200.5t194 -77.5 q153 0 244.5 93t91.5 236q0 122 -74.5 200.5t-195.5 78.5q-148 0 -241 -94.5t-93 -235.5z" />
<glyph unicode="7" horiz-adv-x="1040" d="M121 0l901 1288h-682l35 166h960l-1013 -1454h-201z" />
<glyph unicode="8" horiz-adv-x="1157" d="M1137 1155q0 -98 -40 -181.5t-112 -137.5q81 -59 124.5 -148.5t43.5 -189.5q0 -141 -61.5 -257.5t-180.5 -186.5t-274 -70q-204 0 -327.5 124.5t-123.5 299.5q0 157 79 285.5t218 189.5q-69 84 -69 196q0 166 104.5 278.5t278.5 112.5q151 0 245.5 -93.5t94.5 -221.5z M369 426q0 -122 75.5 -198t202.5 -76q146 0 236 96t90 235q0 122 -77 199.5t-204 77.5q-145 0 -234 -97t-89 -237zM588 1098q0 -73 39 -120t108 -54h19h8q89 0 145 63.5t56 151.5q0 78 -48 125t-127 47q-89 0 -144.5 -63t-55.5 -150z" />
<glyph unicode="9" horiz-adv-x="1093" d="M1059 1022q0 123 -74 200.5t-194 77.5q-153 0 -244.5 -93t-91.5 -236q0 -122 74.5 -200.5t195.5 -78.5q148 0 241 94.5t93 235.5zM272 956q0 142 63 258t186 186t284 70q100 0 184 -36t138 -96.5t84 -138t30 -161.5q0 -105 -40.5 -197t-131.5 -206l-510 -635h-219 l432 532q-35 -6 -63 -6q-133 0 -234.5 61.5t-152 158.5t-50.5 210z" />
<glyph unicode=":" horiz-adv-x="538" d="M610 889q0 -63 -44 -107.5t-107 -44.5q-62 0 -107 44.5t-45 107.5t45 107t107 44q63 0 107 -44t44 -107zM451 135q0 -63 -44.5 -107t-107.5 -44q-62 0 -107 44t-45 107t45 107.5t107 44.5q63 0 107.5 -44.5t44.5 -107.5z" />
<glyph unicode=";" horiz-adv-x="575" d="M629 889q0 -63 -44.5 -107.5t-107.5 -44.5q-62 0 -106.5 44.5t-44.5 107.5t44.5 107t106.5 44q63 0 107.5 -44t44.5 -107zM117 -291l151 291h-104l53 252h250l-55 -254l-179 -289h-116z" />
<glyph unicode="&#x3c;" horiz-adv-x="1046" d="M819 -16l-592 567l592 565l103 -106l-486 -459l486 -463z" />
<glyph unicode="=" horiz-adv-x="1427" d="M379 268v144h909v-144h-909zM379 717v143h909v-143h-909z" />
<glyph unicode="&#x3e;" horiz-adv-x="1048" d="M463 -16l-105 104l486 463l-486 459l105 106l592 -565z" />
<glyph unicode="?" horiz-adv-x="976" d="M641 760q151 0 240.5 85.5t89.5 209.5q0 105 -67 177.5t-171 72.5q-124 0 -206.5 -77.5t-88.5 -191.5h-170q6 86 43 164.5t98 138.5t149 95.5t190 35.5q92 0 168.5 -33.5t125 -90.5t75 -129t26.5 -150q0 -92 -35 -176.5t-98 -149.5t-159 -104t-210 -39h-123l33 162h90z M479 246h205q12 -13 19.5 -39.5t7.5 -50.5q0 -76 -50.5 -124t-123.5 -48q-54 0 -91.5 35.5t-37.5 86.5q0 82 71 140z" />
<glyph unicode="@" horiz-adv-x="1656" d="M958 -16q-162 0 -297.5 55t-226 150t-140.5 224t-50 277q0 170 65.5 318t174.5 248t253 157t299 57q148 0 277 -45.5t222.5 -127t147.5 -202t54 -264.5q0 -128 -31.5 -227t-85 -156t-118.5 -85.5t-138 -28.5q-64 0 -121 30.5t-80 79.5q-106 -106 -272 -106 q-144 0 -234 101.5t-90 250.5q0 188 127.5 318.5t317.5 130.5q141 0 225 -78l12 57h148l-105 -489q-14 -71 10 -116.5t87 -45.5q87 0 147.5 98.5t60.5 270.5q0 156 -74.5 271.5t-201 174.5t-287.5 59q-131 0 -249 -47t-206 -130t-140 -206.5t-52 -267.5q0 -122 39 -226 t111 -181t180.5 -120.5t240.5 -43.5q213 0 377 84l51 -129q-94 -42 -210 -66t-218 -24zM926 473q139 0 209 115l69 321q-32 47 -86.5 71t-113.5 24q-113 0 -196 -85.5t-83 -213.5q0 -107 55.5 -169.5t145.5 -62.5z" />
<glyph unicode="A" horiz-adv-x="1445" d="M20 0l1016 1470l389 -1470h-194l-98 381h-639l-261 -381h-213zM958 1063l-348 -510h480z" />
<glyph unicode="B" horiz-adv-x="1261" d="M172 0l309 1454h426q99 0 179.5 -30t130 -80.5t76 -113t26.5 -130.5q0 -122 -62.5 -216.5t-171.5 -140.5q91 -38 145 -113t54 -175q0 -217 -153.5 -336t-425.5 -119h-533zM395 174h340q167 0 263 75.5t96 196.5q0 94 -71.5 156t-205.5 62h-317zM532 823h285 q143 0 227 71.5t84 182.5q0 87 -60.5 146t-172.5 59h-264z" />
<glyph unicode="C" horiz-adv-x="1431" d="M1407 133q-202 -149 -492 -149q-160 0 -291.5 56.5t-216 152t-130.5 217.5t-46 256q0 124 35.5 241t106.5 219t169.5 179t234 121t290.5 44q323 0 512 -225l-141 -125q-146 172 -385 172q-182 0 -327 -84.5t-222.5 -223.5t-77.5 -302q0 -103 32.5 -195.5t93 -165.5 t157.5 -116t217 -43q215 0 379 125z" />
<glyph unicode="D" horiz-adv-x="1474" d="M395 174h228q165 0 305.5 54t235 145.5t147.5 211t53 249.5q0 196 -127 321t-346 125h-260zM172 0l309 1454h404q157 0 285.5 -47t213 -128.5t130 -192t45.5 -238.5q0 -177 -71 -334t-194.5 -270t-299 -178.5t-376.5 -65.5h-446z" />
<glyph unicode="E" horiz-adv-x="1114" d="M172 0l309 1454h846l-39 -180h-661l-92 -440h536l-39 -181h-536l-101 -473h662l-39 -180h-846z" />
<glyph unicode="F" horiz-adv-x="1036" d="M172 0l309 1454h832l-39 -180h-647l-92 -440h507l-38 -181h-506l-140 -653h-186z" />
<glyph unicode="G" horiz-adv-x="1597" d="M1487 158q-118 -83 -268 -128.5t-304 -45.5q-160 0 -291.5 56.5t-216 152t-130.5 217.5t-46 256q0 124 35.5 241t106.5 219t169.5 179t234 121t290.5 44q172 0 314 -59t227 -166l-140 -125q-64 81 -175.5 126.5t-239.5 45.5q-182 0 -327 -84.5t-222.5 -223.5t-77.5 -302 q0 -103 32.5 -195.5t93 -165.5t157.5 -116t217 -43q249 0 397 110l82 381h-410l119 181h518z" />
<glyph unicode="H" horiz-adv-x="1519" d="M172 0l309 1454h187l-133 -620h802l133 620h187l-309 -1454h-187l139 653h-802l-140 -653h-186z" />
<glyph unicode="I" horiz-adv-x="530" d="M172 0l309 1454h187l-310 -1454h-186z" />
<glyph unicode="J" horiz-adv-x="1026" d="M973 414q-49 -229 -172 -329.5t-322 -100.5q-165 0 -275 88.5t-110 242.5q0 55 10 101h187q-6 -41 -6 -72q0 -93 55 -137.5t152 -44.5q111 0 188 64t104 190l222 1038h188z" />
<glyph unicode="K" horiz-adv-x="1296" d="M172 0l309 1454h187l-156 -725l801 725h235l-831 -756l571 -698h-211l-571 694l-148 -694h-186z" />
<glyph unicode="L" horiz-adv-x="1032" d="M172 0l309 1454h187l-271 -1272h654l-39 -182h-840z" />
<glyph unicode="M" horiz-adv-x="1751" d="M172 0l313 1470l523 -786l884 786l-313 -1470h-186l211 989l-637 -565l-392 594l-217 -1018h-186z" />
<glyph unicode="N" horiz-adv-x="1558" d="M1382 -16l-802 1058l-222 -1042h-186l313 1470l801 -1067l223 1051h187z" />
<glyph unicode="O" horiz-adv-x="1673" d="M426 682q0 -106 32.5 -199t93.5 -165t157.5 -114t216.5 -42q137 0 255.5 49.5t199 133t126 194.5t45.5 233q0 106 -32 199t-93 165t-157.5 114t-216.5 42q-182 0 -327 -84.5t-222.5 -223.5t-77.5 -302zM1745 788q0 -103 -25 -202t-72.5 -188.5t-120 -165t-163.5 -131 t-207.5 -86.5t-247.5 -31q-158 0 -288.5 57t-214 152.5t-129.5 217.5t-46 255q0 124 35.5 241t106.5 219t169.5 179t234 121t290.5 44q158 0 288.5 -57t214 -152.5t129.5 -217.5t46 -255z" />
<glyph unicode="P" horiz-adv-x="1128" d="M172 0l309 1454h385q215 0 330 -107.5t115 -281.5q0 -230 -156 -364t-446 -134h-230l-121 -567h-186zM516 739h234q172 0 272 89t100 235q0 102 -68.5 160.5t-203.5 58.5h-219z" />
<glyph unicode="Q" horiz-adv-x="1693" d="M1745 788q0 -155 -56 -300t-161 -257l166 -186l-133 -119l-170 193q-207 -135 -482 -135q-158 0 -288.5 57t-214 152.5t-129.5 217.5t-46 255q0 124 35.5 241t106.5 219t169.5 179t234 121t290.5 44q158 0 288.5 -57t214 -152.5t129.5 -217.5t46 -255zM426 682 q0 -106 32.5 -199t93.5 -165t157.5 -114t216.5 -42q191 0 344 94l-178 205l131 117l182 -207q147 170 147 401q0 106 -32 199t-93 165t-157.5 114t-216.5 42q-182 0 -327 -84.5t-222.5 -223.5t-77.5 -302z" />
<glyph unicode="R" horiz-adv-x="1273" d="M1034 0l-342 645h-196l-138 -645h-186l309 1454h408q203 0 311.5 -99t108.5 -263q0 -183 -112 -299t-310 -142l352 -651h-205zM530 807h244q164 0 255 74.5t91 197.5q0 97 -65 151t-193 54h-231z" />
<glyph unicode="S" horiz-adv-x="1093" d="M1087 387q0 -171 -134 -287t-355 -116q-163 0 -290 78t-191 204l170 105q42 -92 125 -151.5t200 -59.5q128 0 204.5 59.5t76.5 151.5q0 82 -43.5 142t-138.5 126l-123 86q-122 89 -181 178t-59 203q0 165 125.5 264.5t314.5 99.5q132 0 242.5 -55.5t179.5 -169.5 l-168 -106q-89 155 -270 155q-101 0 -168 -50.5t-67 -137.5q0 -71 40 -125t128 -117l124 -88q60 -43 102.5 -81.5t80 -86.5t56.5 -103.5t19 -117.5z" />
<glyph unicode="T" horiz-adv-x="1060" d="M436 0l271 1274h-396l39 180h979l-39 -180h-397l-270 -1274h-187z" />
<glyph unicode="U" horiz-adv-x="1462" d="M1421 557q-60 -283 -219 -428t-438 -145q-225 0 -362.5 117t-137.5 321q0 64 15 135l190 897h186l-192 -901q-12 -58 -12 -107q0 -139 85 -211.5t236 -72.5q177 0 299.5 101t161.5 290l192 901h187z" />
<glyph unicode="V" horiz-adv-x="1359" d="M676 -16l-352 1470h190l242 -1053l690 1053h209z" />
<glyph unicode="W" horiz-adv-x="1820" d="M510 -16l-170 1470h176l111 -962l592 978l167 -991l519 975h194l-796 -1470l-168 1034z" />
<glyph unicode="X" horiz-adv-x="1376" d="M43 0l705 762l-349 692h201l279 -551l510 551h229l-660 -713l375 -741h-203l-303 600l-555 -600h-229z" />
<glyph unicode="Y" horiz-adv-x="1296" d="M557 0l131 614l-358 840h205l270 -659l547 659h233l-711 -840l-131 -614h-186z" />
<glyph unicode="Z" horiz-adv-x="1245" d="M43 0l1075 1274h-710l38 180h1051l-1075 -1272h795l-39 -182h-1135z" />
<glyph unicode="[" horiz-adv-x="583" d="M96 -289l385 1807h383l-30 -146h-222l-323 -1515h221l-31 -146h-383z" />
<glyph unicode="\" horiz-adv-x="1173" d="M1010 0l-701 1454h164l701 -1454h-164z" />
<glyph unicode="]" horiz-adv-x="583" d="M748 1518l-386 -1807h-382l30 146h221l324 1515h-221l31 146h383z" />
<glyph unicode="^" horiz-adv-x="1249" d="M203 647l559 819l559 -819h-172l-387 565l-389 -565h-170z" />
<glyph unicode="_" horiz-adv-x="868" d="M-33 -150l33 150h868l-32 -150h-869z" />
<glyph unicode="`" horiz-adv-x="555" d="M598 1116l-203 338h213l115 -338h-125z" />
<glyph unicode="a" d="M918 0l18 90q-136 -106 -311 -106q-133 0 -235 64t-154 169t-52 232q0 156 74 290.5t211.5 217.5t308.5 83q203 0 326 -120l22 104h179l-218 -1024h-169zM664 152q86 0 167.5 36t139.5 101l92 438q-42 68 -121.5 106.5t-169.5 38.5q-168 0 -284.5 -117.5t-116.5 -291.5 q0 -141 80.5 -226t212.5 -85z" />
<glyph unicode="b" d="M154 0l309 1454h176l-111 -514q133 100 303 100q133 0 234.5 -64t153 -169t51.5 -232q0 -156 -73.5 -290.5t-210.5 -217.5t-308 -83q-202 0 -328 116l-20 -100h-176zM793 872q-87 0 -168.5 -36.5t-139.5 -102.5l-94 -438q42 -67 122.5 -105t170.5 -38q168 0 284.5 117.5 t116.5 291.5q0 141 -80 226t-212 85z" />
<glyph unicode="c" horiz-adv-x="1097" d="M1075 139q-175 -155 -401 -155q-150 0 -262.5 68.5t-168 176.5t-55.5 236q0 158 75.5 289.5t209.5 208.5t297 77q138 0 240 -56.5t161 -160.5l-149 -100q-41 72 -109.5 110.5t-156.5 38.5q-163 0 -273 -112.5t-110 -280.5q0 -151 91 -239t226 -88q150 0 266 110z" />
<glyph unicode="d" d="M918 0l16 88q-137 -104 -311 -104q-132 0 -233.5 64t-153.5 169t-52 232q0 156 74 290.5t211.5 217.5t308.5 83q200 0 326 -120l115 534h178l-310 -1454h-169zM664 152q86 0 167.5 36t139.5 101l92 438q-42 68 -121.5 106.5t-169.5 38.5q-168 0 -284.5 -117.5 t-116.5 -291.5q0 -141 80.5 -226t212.5 -85z" />
<glyph unicode="e" horiz-adv-x="1169" d="M1083 143q-169 -159 -409 -159q-150 0 -262.5 68.5t-168 176.5t-55.5 236q0 158 75.5 289.5t209.5 208.5t297 77q108 0 194.5 -37.5t140 -100.5t81.5 -143t28 -169q0 -62 -12 -121h-829q3 -147 93.5 -232t221.5 -85q163 0 277 114zM756 879q-128 0 -225.5 -69 t-137.5 -187h629q-1 117 -75 186.5t-191 69.5z" />
<glyph unicode="f" horiz-adv-x="727" d="M229 864l33 160h197q-60 67 -60 162q0 119 96 193.5t259 74.5h231l-35 -160h-192q-91 0 -144 -37t-53 -108q0 -53 31.5 -87.5t89.5 -37.5h211l-33 -160h-270l-184 -864h-179l185 864h-183z" />
<glyph unicode="g" horiz-adv-x="1222" d="M1110 111q0 -126 -43 -224t-119.5 -159.5t-177.5 -93t-221 -31.5q-122 0 -241 34t-191 101l110 149q53 -53 141 -83.5t189 -30.5q171 0 270 82.5t99 236.5q0 23 -6 41q-133 -96 -302 -96q-192 0 -310 124.5t-118 313.5q0 116 41.5 219.5t116.5 180t185.5 121t240.5 44.5 q183 0 303 -102l19 86h178l-170 -801q6 -41 6 -112zM657 205q80 0 156.5 32.5t134.5 92.5l90 420q-45 58 -119 90t-155 32q-165 0 -277 -106t-112 -277q0 -138 75 -211t207 -73z" />
<glyph unicode="h" horiz-adv-x="1196" d="M154 0l309 1454h176l-111 -518q127 104 308 104q155 0 255.5 -97.5t100.5 -258.5q0 -54 -12 -115l-121 -569h-178l116 553q11 60 11 90q0 108 -63.5 168.5t-174.5 60.5q-169 0 -287 -143l-153 -729h-176z" />
<glyph unicode="i" horiz-adv-x="483" d="M594 1247h-174q-23 26 -23 66q0 67 43.5 112t104.5 45q46 0 78 -28.5t32 -69.5q0 -77 -61 -125zM154 0l217 1024h176l-217 -1024h-176z" />
<glyph unicode="j" horiz-adv-x="485" d="M596 1247h-174q-23 26 -23 66q0 67 43.5 112t104.5 45q46 0 78 -28.5t32 -69.5q0 -77 -61 -125zM-147 -377l34 168h66q94 0 133.5 37.5t60.5 136.5l226 1059h178l-229 -1077q-37 -176 -123.5 -250t-259.5 -74h-86z" />
<glyph unicode="k" horiz-adv-x="1064" d="M154 0l309 1454h178l-192 -899l555 469h227l-592 -498l416 -526h-203l-410 518l-110 -518h-178z" />
<glyph unicode="l" horiz-adv-x="485" d="M154 0l309 1454h178l-309 -1454h-178z" />
<glyph unicode="m" horiz-adv-x="1814" d="M1499 0l119 561q12 59 12 105q0 100 -53.5 153t-157.5 53q-78 0 -150.5 -45.5t-125.5 -124.5q0 -60 -15 -124l-122 -578h-177l119 561q13 60 13 103q0 100 -54.5 154t-158.5 54q-154 0 -261 -141l-155 -731h-178l217 1024h170l-19 -94q124 110 295 110q97 0 171 -41.5 t114 -117.5q156 159 385 159q149 0 237 -92.5t88 -249.5q0 -56 -12 -120l-123 -578h-178z" />
<glyph unicode="n" horiz-adv-x="1196" d="M154 0l217 1024h170l-21 -94q134 110 316 110q155 0 255.5 -97.5t100.5 -258.5q0 -54 -12 -115l-121 -569h-178l116 553q11 60 11 90q0 108 -63.5 168.5t-174.5 60.5q-170 0 -285 -143l-153 -729h-178z" />
<glyph unicode="o" horiz-adv-x="1230" d="M373 479q0 -150 92.5 -238.5t226.5 -88.5q163 0 273 112t110 281q0 150 -92.5 238.5t-226.5 88.5q-163 0 -273 -112t-110 -281zM1257 561q0 -159 -75.5 -291.5t-208.5 -209t-295 -76.5q-113 0 -207 39.5t-155 106.5t-94.5 153.5t-33.5 181.5q0 158 76 289.5t210 208.5 t296 77q150 0 263 -68.5t168.5 -176t55.5 -234.5z" />
<glyph unicode="p" horiz-adv-x="1245" d="M74 -377l297 1401h170l-19 -90q136 106 314 106q132 0 233 -64t153 -169t52 -232q0 -156 -74 -290.5t-211 -217.5t-307 -83q-207 0 -328 118l-102 -479h-178zM795 872q-86 0 -167 -36t-139 -101l-94 -440q42 -67 121.5 -105t169.5 -38q169 0 285 117.5t116 291.5 q0 141 -80 226t-212 85z" />
<glyph unicode="q" d="M829 -377l97 459q-131 -98 -301 -98q-133 0 -235 64t-154 169t-52 232q0 156 74 290.5t211.5 217.5t308.5 83q203 0 326 -120l22 104h179l-297 -1401h-179zM664 152q86 0 167.5 36t139.5 101l92 438q-42 68 -121.5 106.5t-169.5 38.5q-168 0 -284.5 -117.5t-116.5 -291.5 q0 -141 80.5 -226t212.5 -85z" />
<glyph unicode="r" horiz-adv-x="739" d="M154 0l217 1024h178l-27 -125q57 66 139 102.5t177 36.5q29 0 69 -4l-39 -186q-40 12 -98 12q-88 0 -163 -41t-126 -117l-149 -702h-178z" />
<glyph unicode="s" horiz-adv-x="851" d="M842 283q0 -131 -103.5 -215t-249.5 -84q-294 0 -380 249l155 70q58 -162 234 -162q70 0 119 34t49 89q0 51 -32.5 87t-107.5 79l-80 47q-198 114 -198 279q0 125 93.5 204.5t238.5 79.5q111 0 197 -52.5t126 -151.5l-160 -72q-46 117 -174 117q-65 0 -105 -30.5 t-40 -84.5q0 -43 28 -78t87 -70l79 -49q102 -57 163 -125t61 -161z" />
<glyph unicode="t" horiz-adv-x="763" d="M227 864v160h201l47 215l201 92l-66 -307h273l-37 -160h-271l-110 -510q-12 -54 -12 -92q0 -52 31 -77t104 -25h121l-35 -160h-129q-140 0 -208.5 54.5t-68.5 166.5q0 34 15 115l112 528h-168z" />
<glyph unicode="u" horiz-adv-x="1163" d="M840 0l20 94q-131 -110 -309 -110q-156 0 -253 94t-97 254q0 52 12 114l123 578h178l-119 -561q-12 -58 -12 -103q0 -103 58.5 -155.5t168.5 -52.5q172 0 285 143l154 729h178l-217 -1024h-170z" />
<glyph unicode="v" horiz-adv-x="1069" d="M535 -16l-312 1040h193l186 -682l467 682h217z" />
<glyph unicode="w" horiz-adv-x="1484" d="M408 0l-105 1024h174l70 -743l438 759l119 -764l385 748h176l-518 -1024h-150l-92 610l-346 -610h-151z" />
<glyph unicode="x" horiz-adv-x="1091" d="M29 0l536 537l-278 487h186l211 -369l369 369h217l-508 -508l297 -516h-189l-227 397l-395 -397h-219z" />
<glyph unicode="y" horiz-adv-x="1046" d="M152 -377l284 438l-211 963h183l163 -772l490 772h201l-910 -1401h-200z" />
<glyph unicode="z" horiz-adv-x="1028" d="M41 0l790 864h-538l33 160h862l-791 -864h584l-35 -160h-905z" />
<glyph unicode="{" horiz-adv-x="606" d="M498 -289h-97q-111 0 -165 49.5t-54 153.5q0 54 15 125l75 358q9 35 9 64q0 86 -99 86h-20l28 137h23q71 0 105 38.5t49 113.5l86 401q34 159 109 220t220 61h101l-31 -140h-66q-87 0 -125 -35.5t-59 -128.5l-80 -376q-21 -95 -56.5 -147.5t-100.5 -76.5q73 -33 73 -127 q0 -48 -10 -94l-78 -366q-10 -55 -10 -82q0 -50 28 -72.5t93 -22.5h67z" />
<glyph unicode="|" horiz-adv-x="669" d="M371 -377v1831h157v-1831h-157z" />
<glyph unicode="}" horiz-adv-x="606" d="M369 1518h96q111 0 165 -49.5t54 -153.5q0 -59 -14 -125l-76 -359q-8 -31 -8 -63q0 -42 22.5 -64t75.5 -22h21l-29 -137h-23q-71 0 -104.5 -38.5t-48.5 -113.5l-86 -401q-34 -159 -109.5 -220t-220.5 -61h-100l30 139h66q87 0 125 35.5t59 128.5l80 377q21 94 57 146.5 t101 76.5q-74 33 -74 127q0 49 10 95l78 366q10 55 10 82q0 50 -27.5 72t-92.5 22h-68z" />
<glyph unicode="~" horiz-adv-x="1253" d="M324 422v176l221 150l405 -154l230 151v-167l-222 -154l-407 154z" />
<glyph unicode="&#xa1;" horiz-adv-x="530" d="M535 778h-205q-12 13 -19.5 39.5t-7.5 50.5q0 76 50.5 124t123.5 48q54 0 91.5 -35.5t37.5 -86.5q0 -82 -71 -140zM467 641l-66 -473l-114 -541h-181l115 541l135 473h111z" />
<glyph unicode="&#xa2;" horiz-adv-x="1144" d="M1094 139q-175 -155 -402 -155h-10l-35 -164h-137l37 180q-160 43 -250 172t-90 293q0 155 72.5 285t202 207.5t288.5 82.5l35 164h137l-39 -176q192 -40 287 -205l-150 -100q-41 72 -109.5 110.5t-156.5 38.5q-163 0 -273 -112.5t-110 -280.5q0 -151 91.5 -239 t226.5 -88q150 0 266 110z" />
<glyph unicode="&#xa3;" horiz-adv-x="1236" d="M147 0l35 166h207l96 459h-204l32 149h222q-42 39 -65.5 107t-23.5 139q0 191 138 320.5t340 129.5q124 0 216 -56t136.5 -144.5t44.5 -194.5v-20h-172v6q0 112 -71 178t-171 66q-121 0 -206 -79t-85 -198q0 -114 71.5 -184t172.5 -70h176l-32 -149h-338l-99 -459h609 l-35 -166h-994z" />
<glyph unicode="&#xa4;" horiz-adv-x="1316" d="M1292 709q0 -154 -92 -283l146 -147l-93 -93l-145 144q-134 -105 -305 -105q-166 0 -297 101l-141 -140l-93 93l142 143q-95 129 -95 287q0 157 93 288l-140 144l93 90l139 -137q129 104 299 104q174 0 307 -108l143 141l93 -90l-146 -148q92 -129 92 -284zM483 709 q0 -138 92 -232t230 -94q140 0 234 94.5t94 231.5q0 142 -94 238.5t-236 96.5q-137 0 -228.5 -96.5t-91.5 -238.5z" />
<glyph unicode="&#xa5;" horiz-adv-x="1310" d="M365 557l30 150h267l-320 747h195l276 -659l553 659h221l-635 -747h265l-31 -150h-324l-33 -151h324l-33 -150h-323l-54 -256h-174l54 256h-324l33 150h323l33 151h-323z" />
<glyph unicode="&#xa6;" horiz-adv-x="667" d="M371 -377v787h155v-787h-155zM371 670v784h155v-784h-155z" />
<glyph unicode="&#xa7;" horiz-adv-x="1085" d="M795 940l34 -20q106 -63 167 -142.5t61 -199.5q0 -87 -32.5 -164.5t-84.5 -130t-115 -84.5t-125 -37l11 -10q114 -114 114 -242q0 -132 -101 -217.5t-253 -85.5q-122 0 -210.5 64.5t-113.5 152.5l146 57q15 -60 64.5 -98.5t119.5 -38.5q91 0 141 44t50 118 q0 63 -49 132.5t-138 123.5l-26 16q-88 55 -142.5 138t-54.5 192q0 151 97 270.5t243 139.5l-12 10q-57 49 -91 118.5t-34 133.5q0 128 102 209t246 81q122 0 205.5 -64t107.5 -153l-143 -57q-16 63 -60.5 101t-115.5 38q-81 0 -133 -45.5t-52 -113.5q0 -59 44.5 -121.5 t132.5 -114.5zM678 782q-108 0 -184 -75.5t-76 -186.5q0 -99 64.5 -158t154.5 -59q108 0 182 73.5t74 186.5q0 100 -63 159.5t-152 59.5z" />
<glyph unicode="&#xa8;" horiz-adv-x="833" d="M586 1292q0 -52 -36 -87.5t-89 -35.5q-50 0 -86.5 35.5t-36.5 87.5q0 50 36.5 85.5t86.5 35.5q53 0 89 -35t36 -86zM1044 1292q0 -53 -35 -88t-87 -35q-51 0 -87 35.5t-36 87.5q0 51 36 86t87 35q52 0 87 -35t35 -86z" />
<glyph unicode="&#xa9;" horiz-adv-x="1675" d="M989 125q122 0 233.5 47.5t192 128t128.5 191.5t48 233t-47.5 233.5t-128.5 192.5t-192.5 128.5t-233.5 47.5t-233 -48t-191.5 -128.5t-128 -192t-47.5 -233.5t47.5 -233t128 -191.5t191.5 -128t233 -47.5zM991 -18q-151 0 -288.5 59t-237 159t-158.5 237.5t-59 287.5 q0 151 59 289t158.5 238t237 159t288.5 59q121 0 234.5 -37.5t205 -107t160.5 -161t106.5 -205t37.5 -234.5q0 -150 -59 -287.5t-158.5 -237.5t-237.5 -159t-289 -59zM1014 330q-169 0 -282.5 114.5t-113.5 284.5t113.5 284.5t282.5 114.5q91 0 180 -41t141 -122l-104 -95 q-38 54 -95 85.5t-116 31.5q-113 0 -181.5 -72t-68.5 -186t68.5 -186t181.5 -72q59 0 116 31.5t95 85.5l104 -94q-52 -81 -141 -122.5t-180 -41.5z" />
<glyph unicode="&#xaa;" horiz-adv-x="741" d="M702 840l11 43q-73 -54 -170 -54q-114 0 -186 81t-72 198q0 145 99.5 250.5t254.5 105.5q108 0 176 -55l10 45h144l-131 -614h-136zM578 965q97 0 159 71l47 224q-24 32 -64.5 50.5t-82.5 18.5q-86 0 -145.5 -59t-59.5 -150q0 -74 41 -114.5t105 -40.5z" />
<glyph unicode="&#xab;" horiz-adv-x="1030" d="M809 57l-217 465l409 445l107 -99l-340 -364l178 -385zM383 57l-217 465l409 445l107 -99l-340 -364l178 -385z" />
<glyph unicode="&#xac;" horiz-adv-x="1402" d="M1083 102v390h-751v143h897v-533h-146z" />
<glyph unicode="&#xad;" horiz-adv-x="686" d="M195 469l38 182h498l-39 -182h-497z" />
<glyph unicode="&#xae;" horiz-adv-x="1675" d="M991 -18q-151 0 -288.5 59t-237 159t-158.5 237.5t-59 287.5q0 151 59 289t158.5 238t237 159t288.5 59q121 0 234.5 -37.5t205 -107t160.5 -161t106.5 -205t37.5 -234.5q0 -150 -59 -287.5t-158.5 -237.5t-237.5 -159t-289 -59zM989 125q122 0 233.5 47.5t192 128 t128.5 191.5t48 233t-47.5 233.5t-128.5 192.5t-192.5 128.5t-233.5 47.5t-233 -48t-191.5 -128.5t-128 -192t-47.5 -233.5t47.5 -233t128 -191.5t191.5 -128t233 -47.5zM733 336v786h289q103 0 170.5 -61.5t67.5 -159.5q-1 -84 -49.5 -142t-125.5 -79l254 -344h-163 l-244 334h-60v-334h-139zM874 799h123q55 0 84 24.5t29 69.5q0 94 -113 94h-123v-188z" />
<glyph unicode="&#xaf;" horiz-adv-x="747" d="M344 1257l29 134h598l-29 -134h-598z" />
<glyph unicode="&#xb0;" horiz-adv-x="731" d="M625 963q-103 0 -176.5 73t-73.5 176t73.5 176.5t176.5 73.5t176 -73.5t73 -176.5t-73 -176t-176 -73zM625 1075q56 0 95.5 40.5t39.5 96.5t-39 96t-96 40q-56 0 -97 -40.5t-41 -95.5t41 -96t97 -41z" />
<glyph unicode="&#xb1;" horiz-adv-x="1445" d="M352 592v143h377v289h143v-289h377v-143h-377v-295h-143v295h-377zM352 0v143h897v-143h-897z" />
<glyph unicode="&#xb2;" horiz-adv-x="694" d="M209 840l383 352h4q-94 15 -147.5 82.5t-53.5 157.5q0 116 83.5 203t217.5 87q113 0 179.5 -72t66.5 -173q0 -55 -29 -122t-94 -126l-278 -256h311l-29 -133h-614zM532 1444q0 -54 32.5 -90.5t88.5 -36.5q68 0 110 42t42 105q0 54 -32.5 90.5t-88.5 36.5 q-67 0 -109.5 -42.5t-42.5 -104.5z" />
<glyph unicode="&#xb3;" horiz-adv-x="636" d="M827 1141q0 -61 -19 -115.5t-56 -99.5t-100.5 -71t-145.5 -26q-86 0 -150 37.5t-96 98.5l129 69q34 -76 129 -76q76 0 120 48.5t44 119.5q0 65 -40 106.5t-126 41.5h-70l222 305h-273l29 133h498l-246 -340q72 -30 111.5 -91.5t39.5 -139.5z" />
<glyph unicode="&#xb4;" horiz-adv-x="546" d="M305 1116l258 338h205l-313 -338h-150z" />
<glyph unicode="&#xb6;" horiz-adv-x="1316" d="M690 532q-161 22 -266.5 139.5t-106.5 293.5q0 150 74 262t202.5 169.5t293.5 57.5h543l-390 -1831h-159l354 1671h-221l-355 -1671h-161z" />
<glyph unicode="&#xb7;" horiz-adv-x="538" d="M539 549q0 -63 -44.5 -107.5t-107.5 -44.5q-62 0 -106.5 44.5t-44.5 107.5t44.5 107t106.5 44q63 0 107.5 -44t44.5 -107z" />
<glyph unicode="&#xb8;" horiz-adv-x="403" d="M-10 -276l215 276h121l-136 -276h-200z" />
<glyph unicode="&#xb9;" horiz-adv-x="362" d="M289 840l157 745l175 148l-191 -893h-141z" />
<glyph unicode="&#xba;" horiz-adv-x="722" d="M432 1133q0 -77 44.5 -122.5t111.5 -45.5q83 0 137.5 56t54.5 142q0 76 -45 121t-112 45q-83 0 -137 -55.5t-54 -140.5zM926 1176q0 -145 -101 -246t-250 -101q-134 0 -212 84.5t-78 204.5q0 145 100.5 245.5t249.5 100.5q134 0 212.5 -84t78.5 -204z" />
<glyph unicode="&#xbb;" horiz-adv-x="1030" d="M864 967l217 -465l-409 -445l-107 99l340 364l-178 385zM438 967l217 -465l-409 -445l-107 99l340 364l-178 385z" />
<glyph unicode="&#xbc;" horiz-adv-x="1683" d="M262 582l158 745l174 148l-191 -893h-141zM66 0h180l1460 1454h-180zM1413 0l47 223h-497l780 670l-117 -545h103l-27 -125h-103l-47 -223h-139zM1290 348h197l43 203z" />
<glyph unicode="&#xbd;" horiz-adv-x="1775" d="M262 582l158 745l174 148l-191 -893h-141zM66 0h180l1460 1454h-180zM1356 604q0 -54 32.5 -90.5t88.5 -36.5q68 0 109.5 42.5t41.5 105.5q0 54 -32.5 90.5t-88.5 36.5q-67 0 -109 -43t-42 -105zM1032 0l387 356q-75 3 -137.5 71t-62.5 165q0 116 83.5 203.5t217.5 87.5 q113 0 179 -72.5t66 -173.5q0 -55 -29 -122t-94 -126l-278 -256h311l-28 -133h-615z" />
<glyph unicode="&#xbe;" horiz-adv-x="1863" d="M788 883q0 -61 -19 -115.5t-56 -99.5t-100.5 -71t-145.5 -26q-86 0 -150 37.5t-96 98.5l129 69q34 -76 129 -76q76 0 120 48.5t44 119.5q0 65 -40 106.5t-126 41.5h-69l221 305h-273l29 133h498l-246 -340q72 -30 111.5 -91.5t39.5 -139.5zM246 0h180l1460 1454h-180z M1593 0l47 223h-497l780 670l-117 -545h103l-27 -125h-102l-47 -223h-140zM1470 348h197l43 203z" />
<glyph unicode="&#xbf;" horiz-adv-x="976" d="M725 778h-205q-26 29 -26 90q0 76 50.5 124t123.5 48q54 0 91.5 -35.5t37.5 -86.5q0 -81 -72 -140zM565 317q-151 0 -240 -85t-89 -209q0 -105 66.5 -177.5t170.5 -72.5q124 0 206.5 77t88.5 191h170q-6 -86 -43 -164.5t-97.5 -138.5t-148.5 -95.5t-190 -35.5 q-122 0 -214 58t-137 148.5t-45 196.5q0 92 35 176.5t98 149.5t159 104t210 39h123l-33 -162h-90z" />
<glyph unicode="&#xc0;" horiz-adv-x="1445" d="M20 0l1016 1470l389 -1470h-194l-98 381h-639l-261 -381h-213zM958 1063l-348 -510h480zM989 1573l-176 297h184l125 -297h-133z" />
<glyph unicode="&#xc1;" horiz-adv-x="1445" d="M20 0l1016 1470l389 -1470h-194l-98 381h-639l-261 -381h-213zM958 1063l-348 -510h480zM981 1573l233 297h216l-300 -297h-149z" />
<glyph unicode="&#xc2;" horiz-adv-x="1445" d="M20 0l1016 1470l389 -1470h-194l-98 381h-639l-261 -381h-213zM958 1063l-348 -510h480zM1092 1733l-324 -164l-63 125l399 202l307 -210l-80 -117z" />
<glyph unicode="&#xc3;" horiz-adv-x="1445" d="M20 0l1016 1470l389 -1470h-194l-98 381h-639l-261 -381h-213zM958 1063l-348 -510h480zM852 1606h-141l14 39q40 97 94 144.5t137 47.5q49 0 100 -22.5t92.5 -45t68.5 -22.5q41 0 64.5 21t45.5 69h141l-14 -37q-39 -95 -91.5 -143.5t-139.5 -48.5q-49 0 -99.5 22.5 t-92.5 45t-70 22.5q-38 0 -63 -22t-46 -70z" />
<glyph unicode="&#xc4;" horiz-adv-x="1445" d="M20 0l1016 1470l389 -1470h-194l-98 381h-639l-261 -381h-213zM958 1063l-348 -510h480zM987 1729q0 -54 -37 -90.5t-90 -36.5q-50 0 -87.5 37t-37.5 90q0 50 37.5 86t87.5 36q53 0 90 -35.5t37 -86.5zM1448 1729q0 -54 -37 -90.5t-90 -36.5q-51 0 -88 37t-37 90 q0 51 37 86.5t88 35.5q53 0 90 -35.5t37 -86.5z" />
<glyph unicode="&#xc5;" horiz-adv-x="1445" d="M20 0l1016 1470l389 -1470h-194l-98 381h-639l-261 -381h-213zM958 1063l-348 -510h480zM1090 1538q-85 0 -144 55t-59 138q0 84 59 139t144 55q84 0 143 -55t59 -139q0 -83 -58.5 -138t-143.5 -55zM1090 1634q41 0 69.5 27.5t28.5 69.5t-29 70t-69 28q-41 0 -70 -28 t-29 -70t29 -69.5t70 -27.5z" />
<glyph unicode="&#xc6;" horiz-adv-x="2072" d="M20 0l883 1276l-45 178h809l47 -180h-627l117 -440h533l47 -181h-533l125 -473h627l49 -180h-821l-98 381h-639l-261 -381h-213zM958 1063l-348 -510h480z" />
<glyph unicode="&#xc7;" horiz-adv-x="1431" d="M1407 133q-181 -135 -440 -147l-127 -262h-201l205 264q-144 12 -261.5 72.5t-193.5 153t-117 209t-41 243.5q0 124 35.5 241t106.5 219t169.5 179t234 121t290.5 44q323 0 512 -225l-141 -125q-146 172 -385 172q-182 0 -327 -84.5t-222.5 -223.5t-77.5 -302 q0 -103 32.5 -195.5t93 -165.5t157.5 -116t217 -43q215 0 379 125z" />
<glyph unicode="&#xc8;" horiz-adv-x="1114" d="M897 1573l-176 297h184l125 -297h-133zM172 0l309 1454h846l-39 -180h-661l-92 -440h536l-39 -181h-536l-101 -473h662l-39 -180h-846z" />
<glyph unicode="&#xc9;" horiz-adv-x="1114" d="M172 0l309 1454h846l-39 -180h-661l-92 -440h536l-39 -181h-536l-101 -473h662l-39 -180h-846zM778 1573l234 297h215l-299 -297h-150z" />
<glyph unicode="&#xca;" horiz-adv-x="1114" d="M963 1733l-324 -164l-64 125l400 202l307 -210l-80 -117zM172 0l309 1454h846l-39 -180h-661l-92 -440h536l-39 -181h-536l-101 -473h662l-39 -180h-846z" />
<glyph unicode="&#xcb;" horiz-adv-x="1114" d="M172 0l309 1454h846l-39 -180h-661l-92 -440h536l-39 -181h-536l-101 -473h662l-39 -180h-846zM858 1729q0 -54 -37 -90.5t-90 -36.5q-50 0 -87.5 37t-37.5 90q0 50 37.5 86t87.5 36q53 0 90 -35.5t37 -86.5zM1319 1729q0 -54 -37 -90.5t-90 -36.5q-52 0 -88.5 37 t-36.5 90q0 51 37 86.5t88 35.5q53 0 90 -35.5t37 -86.5z" />
<glyph unicode="&#xcc;" horiz-adv-x="530" d="M172 0l309 1454h187l-310 -1454h-186zM571 1573l-176 297h185l125 -297h-134z" />
<glyph unicode="&#xcd;" horiz-adv-x="530" d="M172 0l309 1454h187l-310 -1454h-186zM451 1573l233 297h215l-299 -297h-149z" />
<glyph unicode="&#xce;" horiz-adv-x="530" d="M172 0l309 1454h187l-310 -1454h-186zM635 1733l-324 -164l-63 125l399 202l307 -210l-80 -117z" />
<glyph unicode="&#xcf;" horiz-adv-x="530" d="M172 0l309 1454h187l-310 -1454h-186zM530 1729q0 -54 -37 -90.5t-90 -36.5q-50 0 -87 37t-37 90q0 50 37 86t87 36q53 0 90 -35.5t37 -86.5zM991 1729q0 -54 -37 -90.5t-90 -36.5q-52 0 -88.5 37t-36.5 90q0 51 37 86.5t88 35.5q53 0 90 -35.5t37 -86.5z" />
<glyph unicode="&#xd0;" horiz-adv-x="1544" d="M152 639l34 178h222l135 637h403q157 0 285.5 -47t213 -128.5t130 -192t45.5 -238.5q0 -177 -71 -334t-194 -270t-298.5 -178.5t-376.5 -65.5h-447l136 639h-217zM457 174h227q165 0 305.5 54t235 145.5t147.5 211t53 249.5q0 196 -127 321t-346 125h-260l-98 -463h274 l-34 -178h-279z" />
<glyph unicode="&#xd1;" horiz-adv-x="1558" d="M909 1606h-141l14 39q40 97 94.5 144.5t137.5 47.5q49 0 99.5 -22.5t92 -45t68.5 -22.5q41 0 64.5 21t45.5 69h142l-15 -37q-39 -95 -91.5 -143.5t-139.5 -48.5q-49 0 -99.5 22.5t-92.5 45t-70 22.5q-38 0 -63 -22t-46 -70zM1382 -16l-802 1058l-222 -1042h-186l313 1470 l801 -1067l223 1051h187z" />
<glyph unicode="&#xd2;" horiz-adv-x="1673" d="M1141 1573l-176 297h184l125 -297h-133zM426 682q0 -106 32.5 -199t93.5 -165t157.5 -114t216.5 -42q137 0 255.5 49.5t199 133t126 194.5t45.5 233q0 106 -32 199t-93 165t-157.5 114t-216.5 42q-182 0 -327 -84.5t-222.5 -223.5t-77.5 -302zM1745 788q0 -103 -25 -202 t-72.5 -188.5t-120 -165t-163.5 -131t-207.5 -86.5t-247.5 -31q-158 0 -288.5 57t-214 152.5t-129.5 217.5t-46 255q0 124 35.5 241t106.5 219t169.5 179t234 121t290.5 44q158 0 288.5 -57t214 -152.5t129.5 -217.5t46 -255z" />
<glyph unicode="&#xd3;" horiz-adv-x="1673" d="M1018 1573l233 297h215l-299 -297h-149zM426 682q0 -106 32.5 -199t93.5 -165t157.5 -114t216.5 -42q137 0 255.5 49.5t199 133t126 194.5t45.5 233q0 106 -32 199t-93 165t-157.5 114t-216.5 42q-182 0 -327 -84.5t-222.5 -223.5t-77.5 -302zM1745 788q0 -103 -25 -202 t-72.5 -188.5t-120 -165t-163.5 -131t-207.5 -86.5t-247.5 -31q-158 0 -288.5 57t-214 152.5t-129.5 217.5t-46 255q0 124 35.5 241t106.5 219t169.5 179t234 121t290.5 44q158 0 288.5 -57t214 -152.5t129.5 -217.5t46 -255z" />
<glyph unicode="&#xd4;" horiz-adv-x="1673" d="M1204 1731l-323 -164l-64 125l400 202l307 -211l-80 -116zM426 682q0 -106 32.5 -199t93.5 -165t157.5 -114t216.5 -42q137 0 255.5 49.5t199 133t126 194.5t45.5 233q0 106 -32 199t-93 165t-157.5 114t-216.5 42q-182 0 -327 -84.5t-222.5 -223.5t-77.5 -302zM1745 788 q0 -103 -25 -202t-72.5 -188.5t-120 -165t-163.5 -131t-207.5 -86.5t-247.5 -31q-158 0 -288.5 57t-214 152.5t-129.5 217.5t-46 255q0 124 35.5 241t106.5 219t169.5 179t234 121t290.5 44q158 0 288.5 -57t214 -152.5t129.5 -217.5t46 -255z" />
<glyph unicode="&#xd5;" horiz-adv-x="1673" d="M426 682q0 -106 32.5 -199t93.5 -165t157.5 -114t216.5 -42q137 0 255.5 49.5t199 133t126 194.5t45.5 233q0 106 -32 199t-93 165t-157.5 114t-216.5 42q-182 0 -327 -84.5t-222.5 -223.5t-77.5 -302zM1745 788q0 -103 -25 -202t-72.5 -188.5t-120 -165t-163.5 -131 t-207.5 -86.5t-247.5 -31q-158 0 -288.5 57t-214 152.5t-129.5 217.5t-46 255q0 124 35.5 241t106.5 219t169.5 179t234 121t290.5 44q158 0 288.5 -57t214 -152.5t129.5 -217.5t46 -255zM944 1606h-141l14 39q40 97 94.5 144.5t137.5 47.5q49 0 99.5 -22.5t92 -45 t68.5 -22.5q41 0 64.5 21t45.5 69h142l-15 -37q-39 -95 -91.5 -143.5t-139.5 -48.5q-49 0 -99.5 22.5t-92.5 45t-70 22.5q-38 0 -63 -22t-46 -70z" />
<glyph unicode="&#xd6;" horiz-adv-x="1673" d="M426 682q0 -106 32.5 -199t93.5 -165t157.5 -114t216.5 -42q137 0 255.5 49.5t199 133t126 194.5t45.5 233q0 106 -32 199t-93 165t-157.5 114t-216.5 42q-182 0 -327 -84.5t-222.5 -223.5t-77.5 -302zM1745 788q0 -103 -25 -202t-72.5 -188.5t-120 -165t-163.5 -131 t-207.5 -86.5t-247.5 -31q-158 0 -288.5 57t-214 152.5t-129.5 217.5t-46 255q0 124 35.5 241t106.5 219t169.5 179t234 121t290.5 44q158 0 288.5 -57t214 -152.5t129.5 -217.5t46 -255zM1069 1729q0 -54 -37 -90.5t-90 -36.5q-50 0 -87.5 37t-37.5 90q0 50 37.5 86 t87.5 36q53 0 90 -35.5t37 -86.5zM1530 1729q0 -54 -37 -90.5t-90 -36.5q-51 0 -88 37t-37 90q0 51 37 86.5t88 35.5q53 0 90 -35.5t37 -86.5z" />
<glyph unicode="&#xd7;" horiz-adv-x="1339" d="M483 143l-102 101l303 301l-307 307l102 100l305 -307l303 303l101 -100l-303 -303l307 -305l-100 -101l-308 305z" />
<glyph unicode="&#xd8;" horiz-adv-x="1644" d="M414 -31l-109 105l105 116q-87 94 -133 217.5t-46 258.5q0 124 35.5 241t106.5 219t169.5 179t234 121t290.5 44q220 0 385 -108l119 133l110 -104l-114 -129q87 -94 132.5 -217t45.5 -257q0 -103 -25 -202t-72.5 -188.5t-120 -165t-163.5 -131t-207.5 -86.5t-247.5 -31 q-227 0 -387 108zM1552 772q0 206 -112 348l-791 -887q117 -71 277 -71q137 0 255.5 49.5t199 133t126 194.5t45.5 233zM426 682q0 -207 111 -348l788 887q-117 71 -272 71q-182 0 -327 -84.5t-222.5 -223.5t-77.5 -302z" />
<glyph unicode="&#xd9;" horiz-adv-x="1462" d="M1036 1573l-176 297h184l125 -297h-133zM1421 557q-60 -283 -219 -428t-438 -145q-225 0 -362.5 117t-137.5 321q0 64 15 135l190 897h186l-192 -901q-12 -58 -12 -107q0 -139 85 -211.5t236 -72.5q177 0 299.5 101t161.5 290l192 901h187z" />
<glyph unicode="&#xda;" horiz-adv-x="1462" d="M1421 557q-60 -283 -219 -428t-438 -145q-225 0 -362.5 117t-137.5 321q0 64 15 135l190 897h186l-192 -901q-12 -58 -12 -107q0 -139 85 -211.5t236 -72.5q177 0 299.5 101t161.5 290l192 901h187zM915 1573l234 297h215l-299 -297h-150z" />
<glyph unicode="&#xdb;" horiz-adv-x="1462" d="M1100 1733l-324 -164l-63 125l399 202l307 -210l-80 -117zM1421 557q-60 -283 -219 -428t-438 -145q-225 0 -362.5 117t-137.5 321q0 64 15 135l190 897h186l-192 -901q-12 -58 -12 -107q0 -139 85 -211.5t236 -72.5q177 0 299.5 101t161.5 290l192 901h187z" />
<glyph unicode="&#xdc;" horiz-adv-x="1462" d="M1421 557q-60 -283 -219 -428t-438 -145q-225 0 -362.5 117t-137.5 321q0 64 15 135l190 897h186l-192 -901q-12 -58 -12 -107q0 -139 85 -211.5t236 -72.5q177 0 299.5 101t161.5 290l192 901h187zM993 1729q0 -54 -37 -90.5t-90 -36.5q-50 0 -87.5 37t-37.5 90 q0 50 37.5 86t87.5 36q53 0 90 -35.5t37 -86.5zM1454 1729q0 -54 -37 -90.5t-90 -36.5q-51 0 -88 37t-37 90q0 51 37 86.5t88 35.5q53 0 90 -35.5t37 -86.5z" />
<glyph unicode="&#xdd;" horiz-adv-x="1296" d="M557 0l131 614l-358 840h205l270 -659l547 659h233l-711 -840l-131 -614h-186zM821 1573l234 297h215l-299 -297h-150z" />
<glyph unicode="&#xde;" horiz-adv-x="1130" d="M172 0l309 1454h187l-60 -278h215q207 0 319.5 -109t112.5 -283q0 -225 -164 -360t-432 -135h-239l-62 -289h-186zM459 463h229q173 0 274 85.5t101 227.5q0 101 -69.5 163t-205.5 62h-217z" />
<glyph unicode="&#xdf;" horiz-adv-x="1083" d="M143 0l246 1157q32 153 116 225t257 72h80l-35 -160h-62q-81 0 -124.5 -41t-61.5 -123l-22 -106h667l-381 -492q103 -33 170.5 -125.5t67.5 -213.5q0 -85 -25.5 -166.5t-78.5 -154.5t-128.5 -128.5t-183 -88t-233.5 -32.5h-15l35 168h17q90 0 171.5 34t138.5 89.5 t90.5 127t33.5 144.5q0 109 -74.5 173.5t-224.5 64.5h-37l338 440h-383l-183 -864h-176z" />
<glyph unicode="&#xe0;" d="M918 0l18 90q-136 -106 -311 -106q-133 0 -235 64t-154 169t-52 232q0 156 74 290.5t211.5 217.5t308.5 83q203 0 326 -120l22 104h179l-218 -1024h-169zM664 152q86 0 167.5 36t139.5 101l92 438q-42 68 -121.5 106.5t-169.5 38.5q-168 0 -284.5 -117.5t-116.5 -291.5 q0 -141 80.5 -226t212.5 -85zM811 1116l-203 338h213l115 -338h-125z" />
<glyph unicode="&#xe1;" d="M918 0l18 90q-136 -106 -311 -106q-133 0 -235 64t-154 169t-52 232q0 156 74 290.5t211.5 217.5t308.5 83q203 0 326 -120l22 104h179l-218 -1024h-169zM664 152q86 0 167.5 36t139.5 101l92 438q-42 68 -121.5 106.5t-169.5 38.5q-168 0 -284.5 -117.5t-116.5 -291.5 q0 -141 80.5 -226t212.5 -85zM723 1116l258 338h205l-314 -338h-149z" />
<glyph unicode="&#xe2;" d="M918 0l18 90q-136 -106 -311 -106q-133 0 -235 64t-154 169t-52 232q0 156 74 290.5t211.5 217.5t308.5 83q203 0 326 -120l22 104h179l-218 -1024h-169zM664 152q86 0 167.5 36t139.5 101l92 438q-42 68 -121.5 106.5t-169.5 38.5q-168 0 -284.5 -117.5t-116.5 -291.5 q0 -141 80.5 -226t212.5 -85zM547 1133l-66 120l402 217l303 -231l-82 -106l-234 178z" />
<glyph unicode="&#xe3;" d="M918 0l18 90q-136 -106 -311 -106q-133 0 -235 64t-154 169t-52 232q0 156 74 290.5t211.5 217.5t308.5 83q203 0 326 -120l22 104h179l-218 -1024h-169zM664 152q86 0 167.5 36t139.5 101l92 438q-42 68 -121.5 106.5t-169.5 38.5q-168 0 -284.5 -117.5t-116.5 -291.5 q0 -141 80.5 -226t212.5 -85zM623 1159h-142l15 39q40 97 94 145t137 48q49 0 99.5 -22.5t92 -45.5t68.5 -23q41 0 65 21.5t46 69.5h141l-14 -37q-39 -95 -92 -144t-140 -49q-49 0 -99.5 22.5t-92.5 45t-70 22.5q-38 0 -62.5 -22t-45.5 -70z" />
<glyph unicode="&#xe4;" d="M918 0l18 90q-136 -106 -311 -106q-133 0 -235 64t-154 169t-52 232q0 156 74 290.5t211.5 217.5t308.5 83q203 0 326 -120l22 104h179l-218 -1024h-169zM664 152q86 0 167.5 36t139.5 101l92 438q-42 68 -121.5 106.5t-169.5 38.5q-168 0 -284.5 -117.5t-116.5 -291.5 q0 -141 80.5 -226t212.5 -85zM756 1292q0 -52 -36 -87.5t-89 -35.5q-50 0 -86.5 35.5t-36.5 87.5q0 50 36.5 85.5t86.5 35.5q53 0 89 -35t36 -86zM1214 1292q0 -53 -35 -88t-87 -35q-51 0 -87 35.5t-36 87.5q0 51 36 86t87 35q52 0 87 -35t35 -86z" />
<glyph unicode="&#xe5;" d="M918 0l18 90q-136 -106 -311 -106q-133 0 -235 64t-154 169t-52 232q0 156 74 290.5t211.5 217.5t308.5 83q203 0 326 -120l22 104h179l-218 -1024h-169zM664 152q86 0 167.5 36t139.5 101l92 438q-42 68 -121.5 106.5t-169.5 38.5q-168 0 -284.5 -117.5t-116.5 -291.5 q0 -141 80.5 -226t212.5 -85zM1079 1352q0 -82 -58.5 -137.5t-143.5 -55.5t-144 56t-59 137q0 84 59 139t144 55q84 0 143 -55t59 -139zM877 1255q41 0 69.5 27.5t28.5 69.5q0 43 -28.5 70.5t-69.5 27.5t-70 -27.5t-29 -70.5q0 -42 29 -69.5t70 -27.5z" />
<glyph unicode="&#xe6;" horiz-adv-x="1888" d="M1802 143q-169 -159 -409 -159q-132 0 -231.5 51.5t-160.5 142.5q-112 -98 -225 -146t-258 -48q-194 0 -290.5 84t-96.5 217q0 165 130.5 269.5t369.5 104.5q165 0 295 -81q20 106 20 118q1 51 -18 87t-53.5 55t-75 27.5t-90.5 8.5q-169 0 -314 -104l-59 160 q94 55 185 82.5t202 27.5q128 0 219.5 -44t126.5 -136q77 85 185 132.5t235 47.5q108 0 194.5 -37.5t140 -100.5t81.5 -143t28 -169q0 -62 -12 -121h-829q3 -147 93.5 -232t221.5 -85q162 0 276 114zM518 150q110 0 202 43t150 114l25 115q-98 88 -281 88 q-126 0 -211.5 -54.5t-85.5 -150.5q0 -155 201 -155zM1475 879q-128 0 -225.5 -69t-137.5 -187h629q-1 117 -75 186.5t-191 69.5z" />
<glyph unicode="&#xe7;" horiz-adv-x="1097" d="M385 -276l207 266q-188 27 -296 161.5t-108 313.5q0 158 75.5 289.5t209.5 208.5t297 77q138 0 240 -56.5t161 -160.5l-149 -100q-41 72 -109.5 110.5t-156.5 38.5q-163 0 -273 -112.5t-110 -280.5q0 -151 91 -239t226 -88q150 0 266 110l119 -123q-162 -142 -362 -153 l-127 -262h-201z" />
<glyph unicode="&#xe8;" horiz-adv-x="1169" d="M1083 143q-169 -159 -409 -159q-150 0 -262.5 68.5t-168 176.5t-55.5 236q0 158 75.5 289.5t209.5 208.5t297 77q108 0 194.5 -37.5t140 -100.5t81.5 -143t28 -169q0 -62 -12 -121h-829q3 -147 93.5 -232t221.5 -85q163 0 277 114zM756 879q-128 0 -225.5 -69 t-137.5 -187h629q-1 117 -75 186.5t-191 69.5zM770 1116l-203 338h213l115 -338h-125z" />
<glyph unicode="&#xe9;" horiz-adv-x="1169" d="M631 1116l258 338h205l-314 -338h-149zM1083 143q-169 -159 -409 -159q-150 0 -262.5 68.5t-168 176.5t-55.5 236q0 158 75.5 289.5t209.5 208.5t297 77q108 0 194.5 -37.5t140 -100.5t81.5 -143t28 -169q0 -62 -12 -121h-829q3 -147 93.5 -232t221.5 -85q163 0 277 114z M756 879q-128 0 -225.5 -69t-137.5 -187h629q-1 117 -75 186.5t-191 69.5z" />
<glyph unicode="&#xea;" horiz-adv-x="1169" d="M504 1133l-66 120l402 217l303 -231l-82 -106l-234 178zM1083 143q-169 -159 -409 -159q-150 0 -262.5 68.5t-168 176.5t-55.5 236q0 158 75.5 289.5t209.5 208.5t297 77q108 0 194.5 -37.5t140 -100.5t81.5 -143t28 -169q0 -62 -12 -121h-829q3 -147 93.5 -232 t221.5 -85q163 0 277 114zM756 879q-128 0 -225.5 -69t-137.5 -187h629q-1 117 -75 186.5t-191 69.5z" />
<glyph unicode="&#xeb;" horiz-adv-x="1169" d="M717 1292q0 -52 -36 -87.5t-89 -35.5q-50 0 -86.5 35.5t-36.5 87.5q0 50 36.5 85.5t86.5 35.5q53 0 89 -35t36 -86zM1176 1292q0 -52 -35 -87.5t-88 -35.5q-51 0 -87 35.5t-36 87.5q0 51 36 86t87 35q52 0 87.5 -35t35.5 -86zM1083 143q-169 -159 -409 -159 q-150 0 -262.5 68.5t-168 176.5t-55.5 236q0 158 75.5 289.5t209.5 208.5t297 77q108 0 194.5 -37.5t140 -100.5t81.5 -143t28 -169q0 -62 -12 -121h-829q3 -147 93.5 -232t221.5 -85q163 0 277 114zM756 879q-128 0 -225.5 -69t-137.5 -187h629q-1 117 -75 186.5t-191 69.5 z" />
<glyph unicode="&#xec;" horiz-adv-x="485" d="M154 0l217 1024h178l-217 -1024h-178zM463 1116l-203 338h213l115 -338h-125z" />
<glyph unicode="&#xed;" horiz-adv-x="485" d="M324 1116l258 338h204l-313 -338h-149zM154 0l217 1024h178l-217 -1024h-178z" />
<glyph unicode="&#xee;" horiz-adv-x="485" d="M215 1133l-65 120l401 217l303 -231l-82 -106l-233 178zM154 0l217 1024h178l-217 -1024h-178z" />
<glyph unicode="&#xef;" horiz-adv-x="485" d="M410 1292q0 -52 -36 -87.5t-89 -35.5q-50 0 -86.5 35.5t-36.5 87.5q0 50 36.5 85.5t86.5 35.5q53 0 89 -35t36 -86zM868 1292q0 -52 -35 -87.5t-88 -35.5q-51 0 -86.5 35.5t-35.5 87.5q0 51 35.5 86t86.5 35q52 0 87.5 -35t35.5 -86zM154 0l217 1024h178l-217 -1024h-178 z" />
<glyph unicode="&#xf0;" horiz-adv-x="1230" d="M573 1151l31 137h180l-77 166h186l78 -166h258l-31 -137h-164l142 -303q43 -92 61 -153.5t18 -133.5q0 -159 -75.5 -291.5t-208.5 -209t-295 -76.5q-113 0 -207 39.5t-155 106.5t-94.5 153.5t-33.5 181.5q0 158 76 289.5t210 208.5t296 77q88 0 150 -32l-68 143h-277z M371 479q0 -150 92 -237.5t227 -87.5q164 0 273.5 111t109.5 280q0 150 -92 237.5t-227 87.5q-164 0 -273.5 -111t-109.5 -280z" />
<glyph unicode="&#xf1;" horiz-adv-x="1196" d="M154 0l217 1024h170l-21 -94q134 110 316 110q155 0 255.5 -97.5t100.5 -258.5q0 -54 -12 -115l-121 -569h-178l116 553q11 60 11 90q0 108 -63.5 168.5t-174.5 60.5q-170 0 -285 -143l-153 -729h-178zM637 1159h-141l14 39q40 97 94 145t137 48q49 0 99.5 -22.5 t92 -45.5t68.5 -23q41 0 65 21.5t46 69.5h141l-14 -37q-39 -95 -92 -144t-139 -49q-49 0 -100 22.5t-93 45t-70 22.5q-38 0 -62.5 -22t-45.5 -70z" />
<glyph unicode="&#xf2;" horiz-adv-x="1230" d="M373 479q0 -150 92.5 -238.5t226.5 -88.5q163 0 273 112t110 281q0 150 -92.5 238.5t-226.5 88.5q-163 0 -273 -112t-110 -281zM1257 561q0 -159 -75.5 -291.5t-208.5 -209t-295 -76.5q-113 0 -207 39.5t-155 106.5t-94.5 153.5t-33.5 181.5q0 158 76 289.5t210 208.5 t296 77q150 0 263 -68.5t168.5 -176t55.5 -234.5zM836 1116l-203 338h213l115 -338h-125z" />
<glyph unicode="&#xf3;" horiz-adv-x="1230" d="M696 1116l258 338h205l-313 -338h-150zM373 479q0 -150 92.5 -238.5t226.5 -88.5q163 0 273 112t110 281q0 150 -92.5 238.5t-226.5 88.5q-163 0 -273 -112t-110 -281zM1257 561q0 -159 -75.5 -291.5t-208.5 -209t-295 -76.5q-113 0 -207 39.5t-155 106.5t-94.5 153.5 t-33.5 181.5q0 158 76 289.5t210 208.5t296 77q150 0 263 -68.5t168.5 -176t55.5 -234.5z" />
<glyph unicode="&#xf4;" horiz-adv-x="1230" d="M569 1133l-65 120l401 217l303 -231l-82 -106l-233 178zM373 479q0 -150 92.5 -238.5t226.5 -88.5q163 0 273 112t110 281q0 150 -92.5 238.5t-226.5 88.5q-163 0 -273 -112t-110 -281zM1257 561q0 -159 -75.5 -291.5t-208.5 -209t-295 -76.5q-113 0 -207 39.5 t-155 106.5t-94.5 153.5t-33.5 181.5q0 158 76 289.5t210 208.5t296 77q150 0 263 -68.5t168.5 -176t55.5 -234.5z" />
<glyph unicode="&#xf5;" horiz-adv-x="1230" d="M373 479q0 -150 92.5 -238.5t226.5 -88.5q163 0 273 112t110 281q0 150 -92.5 238.5t-226.5 88.5q-163 0 -273 -112t-110 -281zM1257 561q0 -159 -75.5 -291.5t-208.5 -209t-295 -76.5q-113 0 -207 39.5t-155 106.5t-94.5 153.5t-33.5 181.5q0 158 76 289.5t210 208.5 t296 77q150 0 263 -68.5t168.5 -176t55.5 -234.5zM647 1159h-141l14 39q40 97 94.5 145t137.5 48q49 0 99.5 -22.5t92 -45.5t68.5 -23q40 0 64 21.5t46 69.5h142l-15 -37q-39 -95 -92 -144t-139 -49q-49 0 -99.5 22.5t-92.5 45t-70 22.5q-38 0 -63 -22t-46 -70z" />
<glyph unicode="&#xf6;" horiz-adv-x="1230" d="M782 1292q0 -52 -36 -87.5t-89 -35.5q-50 0 -86 35.5t-36 87.5q0 51 36 86t86 35q53 0 89 -35t36 -86zM1241 1292q0 -52 -35.5 -87.5t-87.5 -35.5q-51 0 -87 35.5t-36 87.5q0 51 36 86t87 35q52 0 87.5 -35t35.5 -86zM373 479q0 -150 92.5 -238.5t226.5 -88.5 q163 0 273 112t110 281q0 150 -92.5 238.5t-226.5 88.5q-163 0 -273 -112t-110 -281zM1257 561q0 -159 -75.5 -291.5t-208.5 -209t-295 -76.5q-113 0 -207 39.5t-155 106.5t-94.5 153.5t-33.5 181.5q0 158 76 289.5t210 208.5t296 77q150 0 263 -68.5t168.5 -176 t55.5 -234.5z" />
<glyph unicode="&#xf7;" horiz-adv-x="1320" d="M780 141q-56 0 -96.5 39.5t-40.5 95.5q0 57 40.5 96.5t96.5 39.5q57 0 96 -39.5t39 -96.5t-39 -96t-96 -39zM780 713q-56 0 -96.5 40t-40.5 97q0 55 40.5 95t96.5 40q57 0 96 -39.5t39 -95.5q0 -57 -39 -97t-96 -40zM332 492v143h897v-143h-897z" />
<glyph unicode="&#xf8;" horiz-adv-x="1230" d="M289 -33l-103 103l97 98q-95 131 -95 297q0 158 76 289.5t210 208.5t296 77t287 -84l96 99l102 -103l-94 -96q96 -125 96 -295q0 -159 -75.5 -291.5t-208.5 -209t-295 -76.5q-167 0 -291 84zM1075 545q0 103 -45 176l-514 -522q77 -47 176 -47q163 0 273 112t110 281z M373 479q0 -98 43 -176l512 522q-74 47 -172 47q-163 0 -273 -112t-110 -281z" />
<glyph unicode="&#xf9;" horiz-adv-x="1163" d="M840 0l20 94q-131 -110 -309 -110q-156 0 -253 94t-97 254q0 52 12 114l123 578h178l-119 -561q-12 -58 -12 -103q0 -103 58.5 -155.5t168.5 -52.5q172 0 285 143l154 729h178l-217 -1024h-170zM784 1116l-202 338h213l114 -338h-125z" />
<glyph unicode="&#xfa;" horiz-adv-x="1163" d="M645 1116l258 338h205l-313 -338h-150zM840 0l20 94q-131 -110 -309 -110q-156 0 -253 94t-97 254q0 52 12 114l123 578h178l-119 -561q-12 -58 -12 -103q0 -103 58.5 -155.5t168.5 -52.5q172 0 285 143l154 729h178l-217 -1024h-170z" />
<glyph unicode="&#xfb;" horiz-adv-x="1163" d="M518 1133l-65 120l401 217l303 -231l-82 -106l-233 178zM840 0l20 94q-131 -110 -309 -110q-156 0 -253 94t-97 254q0 52 12 114l123 578h178l-119 -561q-12 -58 -12 -103q0 -103 58.5 -155.5t168.5 -52.5q172 0 285 143l154 729h178l-217 -1024h-170z" />
<glyph unicode="&#xfc;" horiz-adv-x="1163" d="M731 1292q0 -52 -36 -87.5t-89 -35.5q-50 0 -86.5 35.5t-36.5 87.5q0 50 36.5 85.5t86.5 35.5q53 0 89 -35t36 -86zM1190 1292q0 -52 -35 -87.5t-88 -35.5q-51 0 -87 35.5t-36 87.5q0 51 36 86t87 35q52 0 87.5 -35t35.5 -86zM840 0l20 94q-131 -110 -309 -110 q-156 0 -253 94t-97 254q0 52 12 114l123 578h178l-119 -561q-12 -58 -12 -103q0 -103 58.5 -155.5t168.5 -52.5q172 0 285 143l154 729h178l-217 -1024h-170z" />
<glyph unicode="&#xfd;" horiz-adv-x="1046" d="M152 -377l284 438l-211 963h183l163 -772l490 772h201l-910 -1401h-200zM598 1116l258 338h205l-313 -338h-150z" />
<glyph unicode="&#xfe;" horiz-adv-x="1245" d="M74 -377l389 1831h170l-111 -520q136 106 314 106q132 0 233 -64t153 -169t52 -232q0 -156 -74 -290.5t-211 -217.5t-307 -83q-207 0 -328 118l-102 -479h-178zM795 872q-86 0 -167 -36t-139 -101l-94 -440q42 -67 121.5 -105t169.5 -38q169 0 285 117.5t116 291.5 q0 141 -80 226t-212 85z" />
<glyph unicode="&#xff;" horiz-adv-x="1046" d="M152 -377l284 438l-211 963h183l163 -772l490 772h201l-910 -1401h-200zM684 1292q0 -52 -36 -87.5t-89 -35.5q-50 0 -86.5 35.5t-36.5 87.5q0 50 36.5 85.5t86.5 35.5q53 0 89 -35t36 -86zM1143 1292q0 -52 -35.5 -87.5t-87.5 -35.5q-51 0 -87 35.5t-36 87.5q0 51 36 86 t87 35q52 0 87.5 -35t35.5 -86z" />
<glyph unicode="&#x152;" horiz-adv-x="2279" d="M1253 0l11 51q-159 -67 -355 -67q-158 0 -288.5 57t-214 152.5t-129.5 217.5t-46 255q0 124 35.5 241t106.5 219t169.5 179t234 121t290.5 44q275 0 463 -170l33 154h845l-38 -180h-660l-35 -172q62 -131 68 -268h409l-38 -181h-381q-22 -135 -87.5 -256.5t-168.5 -212.5 v-4h661l-39 -180h-846zM426 682q0 -106 32.5 -199t93.5 -165t157.5 -114t216.5 -42q137 0 255.5 49.5t199 133t126 194.5t45.5 233q0 106 -32 199t-93 165t-157.5 114t-216.5 42q-182 0 -327 -84.5t-222.5 -223.5t-77.5 -302z" />
<glyph unicode="&#x153;" horiz-adv-x="2054" d="M1141 211q-80 -106 -200.5 -166.5t-264.5 -60.5q-113 0 -207 39.5t-155 106.5t-94.5 153.5t-33.5 181.5q0 158 76 289.5t210 208.5t296 77q144 0 251.5 -61.5t168.5 -165.5q79 106 201 166.5t266 60.5q108 0 194.5 -37.5t140 -100.5t81.5 -143t28 -169q0 -62 -12 -121 h-830q3 -147 93.5 -232t222.5 -85q162 0 276 114l119 -123q-169 -159 -409 -159q-144 0 -251 61.5t-167 165.5zM690 154q164 0 273.5 111t109.5 280q0 150 -92 237.5t-227 87.5q-164 0 -273.5 -111t-109.5 -280q0 -150 92 -237.5t227 -87.5zM1278 623h629 q-1 117 -75.5 186.5t-191.5 69.5q-128 0 -225 -69t-137 -187z" />
<glyph unicode="&#x178;" horiz-adv-x="1296" d="M557 0l131 614l-358 840h205l270 -659l547 659h233l-711 -840l-131 -614h-186zM899 1729q0 -54 -37 -90.5t-90 -36.5q-50 0 -87.5 37t-37.5 90q0 50 37.5 86t87.5 36q53 0 90 -35.5t37 -86.5zM1360 1729q0 -54 -37 -90.5t-90 -36.5q-51 0 -88 37t-37 90q0 51 37 86.5 t88 35.5q53 0 90 -35.5t37 -86.5z" />
<glyph unicode="&#x2c6;" horiz-adv-x="829" d="M393 1133l-65 120l401 217l303 -231l-82 -106l-233 178z" />
<glyph unicode="&#x2dc;" horiz-adv-x="892" d="M479 1159h-141l14 39q40 97 94.5 145t137.5 48q49 0 99.5 -22.5t92 -45.5t68.5 -23q40 0 64 21.5t46 69.5h142l-15 -37q-39 -95 -92 -144t-139 -49q-49 0 -99.5 22.5t-92.5 45t-70 22.5q-38 0 -63 -22t-46 -70z" />
<glyph unicode="&#x2000;" horiz-adv-x="962" />
<glyph unicode="&#x2001;" horiz-adv-x="1925" />
<glyph unicode="&#x2002;" horiz-adv-x="962" />
<glyph unicode="&#x2003;" horiz-adv-x="1925" />
<glyph unicode="&#x2004;" horiz-adv-x="641" />
<glyph unicode="&#x2005;" horiz-adv-x="481" />
<glyph unicode="&#x2006;" horiz-adv-x="320" />
<glyph unicode="&#x2007;" horiz-adv-x="320" />
<glyph unicode="&#x2008;" horiz-adv-x="240" />
<glyph unicode="&#x2009;" horiz-adv-x="385" />
<glyph unicode="&#x200a;" horiz-adv-x="106" />
<glyph unicode="&#x2010;" horiz-adv-x="686" d="M195 469l38 182h498l-39 -182h-497z" />
<glyph unicode="&#x2011;" horiz-adv-x="686" d="M195 469l38 182h498l-39 -182h-497z" />
<glyph unicode="&#x2012;" horiz-adv-x="686" d="M195 469l38 182h498l-39 -182h-497z" />
<glyph unicode="&#x2013;" horiz-adv-x="1081" d="M197 477l39 166h888l-39 -166h-888z" />
<glyph unicode="&#x2014;" horiz-adv-x="1689" d="M197 477l39 166h1497l-39 -166h-1497z" />
<glyph unicode="&#x2018;" horiz-adv-x="524" d="M682 1454l-152 -291h105l-53 -252h-250l55 254l178 289h117z" />
<glyph unicode="&#x2019;" horiz-adv-x="524" d="M346 911l152 291h-105l53 252h250l-55 -254l-178 -289h-117z" />
<glyph unicode="&#x201a;" horiz-adv-x="524" d="M90 -291l152 291h-105l53 252h250l-55 -254l-178 -289h-117z" />
<glyph unicode="&#x201c;" horiz-adv-x="933" d="M682 1454l-152 -291h105l-53 -252h-250l55 254l178 289h117zM1092 1454l-152 -291h104l-53 -252h-250l56 254l178 289h117z" />
<glyph unicode="&#x201d;" horiz-adv-x="933" d="M346 911l152 291h-105l53 252h250l-55 -254l-178 -289h-117zM756 909l151 291h-104l53 252h250l-55 -254l-179 -289h-116z" />
<glyph unicode="&#x201e;" horiz-adv-x="933" d="M90 -291l152 291h-105l53 252h250l-55 -254l-178 -289h-117zM500 -291l151 291h-104l53 252h250l-55 -254l-179 -289h-116z" />
<glyph unicode="&#x2022;" horiz-adv-x="835" d="M549 340q-116 0 -197.5 81.5t-81.5 196.5q0 116 82 197.5t197 81.5t196.5 -81.5t81.5 -197.5t-81.5 -197t-196.5 -81z" />
<glyph unicode="&#x2026;" horiz-adv-x="1345" d="M408 135q0 -63 -44.5 -107t-107.5 -44q-62 0 -107 44t-45 107t45 107.5t107 44.5q63 0 107.5 -44.5t44.5 -107.5zM854 135q0 -63 -44.5 -107t-107.5 -44q-62 0 -106.5 44t-44.5 107t44.5 107.5t106.5 44.5q63 0 107.5 -44.5t44.5 -107.5zM1300 135q0 -63 -44 -107 t-107 -44q-62 0 -107 44t-45 107t45 107.5t107 44.5q63 0 107 -44.5t44 -107.5z" />
<glyph unicode="&#x202f;" horiz-adv-x="385" />
<glyph unicode="&#x2039;" horiz-adv-x="604" d="M383 57l-217 465l409 445l107 -99l-340 -364l178 -385z" />
<glyph unicode="&#x203a;" horiz-adv-x="604" d="M438 967l217 -465l-409 -445l-107 99l340 364l-178 385z" />
<glyph unicode="&#x205f;" horiz-adv-x="481" />
<glyph unicode="&#x20ac;" horiz-adv-x="1447" d="M190 813l74 125h203q40 113 112 208.5t170.5 168.5t228.5 114t277 41q256 0 422 -147l-96 -162q-62 62 -149.5 97.5t-190.5 35.5q-205 0 -355 -97.5t-220 -258.5h784l-74 -125h-749q-13 -70 -13 -131v-39h662l-74 -123h-567q44 -160 167.5 -260t311.5 -100q128 0 242 49 l-43 -197q-98 -28 -209 -28q-138 0 -255.5 42t-200.5 115.5t-137.5 170t-76.5 208.5h-303l72 123h217v23q0 74 12 147h-242z" />
<glyph unicode="&#x2122;" horiz-adv-x="1746" d="M1020 727v760l375 -369l374 369v-760h-133v467l-241 -238l-244 238v-467h-131zM561 727v604h-196v123h532v-123h-201v-604h-135z" />
<glyph unicode="&#x25fc;" horiz-adv-x="1024" d="M0 1024h1024v-1024h-1024v1024z" />
<glyph unicode="&#xfb01;" horiz-adv-x="1212" d="M229 864l33 160h197q-60 67 -60 162q0 119 96 193.5t259 74.5h231l-35 -160h-192q-91 0 -144 -37t-53 -108q0 -53 31.5 -87.5t89.5 -37.5h211l-33 -160h-270l-184 -864h-179l185 864h-183zM1321 1247h-174q-23 26 -23 66q0 67 43.5 112t104.5 45q46 0 78 -28.5t32 -69.5 q0 -77 -61 -125zM881 0l217 1024h176l-217 -1024h-176z" />
<glyph unicode="&#xfb02;" horiz-adv-x="1212" d="M229 864l33 160h197q-60 67 -60 162q0 119 96 193.5t259 74.5h231l-35 -160h-192q-91 0 -144 -37t-53 -108q0 -53 31.5 -87.5t89.5 -37.5h211l-33 -160h-270l-184 -864h-179l185 864h-183zM881 0l309 1454h178l-309 -1454h-178z" />
</font>
</defs>
</svg>
