<?xml version="1.0" standalone="no"?>
<!DOCTYPE svg PUBLIC "-//W3C//DTD SVG 1.1//EN" "http://www.w3.org/Graphics/SVG/1.1/DTD/svg11.dtd" >
<svg xmlns="http://www.w3.org/2000/svg">
<metadata></metadata>
<defs>
<font id="euclid_flexbold_italic" horiz-adv-x="1222" >
<font-face units-per-em="2048" ascent="1651" descent="-397" />
<missing-glyph horiz-adv-x="450" />
<glyph horiz-adv-x="0" />
<glyph horiz-adv-x="682" />
<glyph unicode=" "  horiz-adv-x="450" />
<glyph unicode="&#x09;" horiz-adv-x="450" />
<glyph unicode="&#xa0;" horiz-adv-x="450" />
<glyph unicode="!" horiz-adv-x="675" d="M354 522l19 377l119 555h311l-119 -555l-141 -377h-189zM604 225q-1 -112 -68.5 -176.5t-175.5 -64.5q-83 0 -144.5 54.5t-61.5 131.5q0 61 31 116.5t85 90.5h279q24 -24 39.5 -66.5t15.5 -85.5z" />
<glyph unicode="&#x22;" horiz-adv-x="925" d="M371 844v610h260v-610h-260zM784 844v610h260v-610h-260z" />
<glyph unicode="#" horiz-adv-x="1710" d="M920 0l114 371h-268l-115 -371h-262l115 371h-170v233h244l75 246h-170v233h244l115 371h262l-115 -371h268l115 371h262l-114 -371h168v-233h-242l-76 -246h170v-233h-244l-114 -371h-262zM915 850l-75 -246h268l76 246h-269z" />
<glyph unicode="$" horiz-adv-x="1126" d="M416 -180l41 188q-120 37 -205.5 124t-118.5 210l291 129q36 -113 86.5 -157t138.5 -44q70 0 110 34t40 87q-2 49 -28 89.5t-107 103.5l-72 57q-127 103 -187.5 198t-60.5 220q0 184 118 292t304 117l37 166h260l-45 -209q144 -67 219 -229l-289 -129q-34 65 -73 92 t-91 27t-87 -27t-35 -84q0 -51 32.5 -98t120.5 -117l70 -55q111 -87 173 -178t62 -213q0 -175 -104.5 -289t-302.5 -135l-37 -170h-260z" />
<glyph unicode="%" horiz-adv-x="858" d="M772 287q0 -121 -87 -212t-226 -91q-118 0 -187 75.5t-69 180.5q0 122 86.5 212.5t226.5 90.5q118 0 187 -75.5t69 -180.5zM969 1214q0 -121 -87.5 -212t-226.5 -91q-118 0 -187 75.5t-69 180.5q0 122 87 212.5t227 90.5q118 0 187 -75.5t69 -180.5zM244 610l49 234h633 l-49 -234h-633zM399 256q0 -34 20.5 -58t57.5 -24q45 0 71.5 27.5t26.5 68.5q0 35 -19.5 58.5t-57.5 23.5q-44 0 -71.5 -28t-27.5 -68zM596 1184q0 -34 20.5 -58t57.5 -24q45 0 71.5 27.5t26.5 68.5q0 35 -20 58.5t-58 23.5q-44 0 -71 -28t-27 -68z" />
<glyph unicode="&#x26;" horiz-adv-x="1261" d="M922 0l-27 98q-133 -114 -332 -114q-101 0 -184.5 36.5t-136.5 98t-82 139t-29 162.5q0 100 32.5 190t95.5 163t167.5 116.5t237.5 44.5l-144 520h830l-58 -270h-383l328 -1184h-315zM434 446q0 -72 42 -123t118 -51q91 0 146 58t55 141q0 72 -42 123t-118 51 q-91 0 -146 -58t-55 -141z" />
<glyph unicode="'" horiz-adv-x="512" d="M371 844v610h260v-610h-260z" />
<glyph unicode="(" horiz-adv-x="641" d="M287 -336q-34 108 -54 286.5t-20 323.5q0 339 120 658t359 633l244 -121q-226 -312 -338.5 -575t-112.5 -554q0 -125 14 -282.5t38 -268.5z" />
<glyph unicode=")" horiz-adv-x="641" d="M614 1565q34 -108 54 -287t20 -324q0 -339 -120 -657.5t-359 -632.5l-244 121q110 152 187 280t140 268.5t93.5 284.5t30.5 295q0 127 -13.5 284t-37.5 267z" />
<glyph unicode="*" horiz-adv-x="1015" d="M549 580l-170 122l180 246l-291 94l66 201l291 -94v305h211v-305l288 96l66 -201l-289 -96l180 -246l-170 -122l-180 243z" />
<glyph unicode="+" horiz-adv-x="1257" d="M305 461v233h330v330h233v-330h330v-233h-330v-330h-233v330h-330z" />
<glyph unicode="," horiz-adv-x="630" d="M117 -315l157 315h-137l76 356h356l-75 -356l-199 -315h-178z" />
<glyph unicode="-" horiz-adv-x="757" d="M180 430l64 295h581l-63 -295h-582z" />
<glyph unicode="." horiz-adv-x="686" d="M608 205q0 -92 -64.5 -156.5t-156.5 -64.5t-156.5 64.5t-64.5 156.5t64.5 156.5t156.5 64.5t156.5 -64.5t64.5 -156.5z" />
<glyph unicode="/" horiz-adv-x="851" d="M102 0l678 1454h279l-678 -1454h-279z" />
<glyph unicode="0" horiz-adv-x="1646" d="M528 692q0 -84 25 -158.5t72.5 -133.5t124.5 -93.5t174 -34.5q152 0 266.5 68t172.5 178t58 244q0 84 -25 158.5t-73 133.5t-124.5 93.5t-172.5 34.5q-116 0 -211 -39.5t-157 -106.5t-96 -155.5t-34 -188.5zM1731 788q0 -124 -34 -241t-103 -219t-166.5 -179t-234 -121 t-294.5 -44q-151 0 -280.5 57t-216.5 151.5t-136 217.5t-49 256q0 124 34 241t103.5 219t167 179t233.5 121t294 44q151 0 280.5 -57t216.5 -151.5t136 -217.5t49 -256z" />
<glyph unicode="1" horiz-adv-x="626" d="M158 0l245 1159l379 311l-313 -1470h-311z" />
<glyph unicode="2" horiz-adv-x="1198" d="M27 0l565 555q-142 37 -220.5 147.5t-78.5 253.5q0 98 37.5 190t105 164.5t169.5 116t222 43.5q101 0 184.5 -36.5t137 -97.5t82.5 -139.5t29 -164.5q0 -59 -15.5 -115t-36 -97.5t-58.5 -90t-66.5 -78.5t-75.5 -76l-291 -286h442l-61 -289h-1071zM596 983 q0 -74 42.5 -124t121.5 -50q88 0 142 58t54 141q0 72 -42 123t-117 51q-91 0 -146 -58t-55 -141z" />
<glyph unicode="3" horiz-adv-x="1073" d="M1098 514q0 -104 -33 -196.5t-98 -168.5t-173.5 -120.5t-246.5 -44.5q-155 0 -261.5 71t-154.5 193l262 151q20 -58 66.5 -92.5t115.5 -34.5q101 0 163.5 62t62.5 153q0 81 -57 135t-175 54h-155l336 489h-424l61 289h879l-383 -559q106 -54 160.5 -155.5t54.5 -225.5z " />
<glyph unicode="4" horiz-adv-x="1206" d="M698 0l70 328h-729l1284 1142l-186 -872h135l-58 -270h-135l-69 -328h-312zM676 598h149l35 164z" />
<glyph unicode="5" horiz-adv-x="1112" d="M1126 514q0 -104 -33 -196.5t-98 -168.5t-173.5 -120.5t-246.5 -44.5q-145 0 -252.5 64t-172.5 175l245 178q25 -57 82.5 -93t126.5 -36q101 0 163 62t62 153q0 78 -48 133.5t-130 55.5q-127 0 -188 -94l-203 88l191 784h770l-62 -289h-475l-49 -202q20 2 45 2 q104 0 190 -37.5t141 -100.5t85 -144t30 -169z" />
<glyph unicode="6" horiz-adv-x="1083" d="M1139 514q0 -104 -33 -196.5t-98 -168.5t-173.5 -120.5t-246.5 -44.5q-104 0 -190 37t-141.5 99.5t-85.5 143.5t-30 170q0 201 125 361l510 659h361l-383 -493q121 -14 210.5 -81t132 -162t42.5 -204zM438 459q0 -78 47.5 -132.5t130.5 -54.5q102 0 164 62t62 153 q0 78 -48 133.5t-130 55.5q-102 0 -164 -63t-62 -154z" />
<glyph unicode="7" horiz-adv-x="1064" d="M72 0l776 1165h-529l62 289h1008l-969 -1454h-348z" />
<glyph unicode="8" horiz-adv-x="1175" d="M1186 1106q0 -181 -119 -291q117 -114 117 -278q0 -110 -34 -208.5t-98 -176t-166.5 -123t-228.5 -45.5q-198 0 -331 124.5t-133 303.5q0 150 61 269t178 187q-51 79 -51 179q0 77 26 150t76 135t134.5 100t191.5 38q85 0 157 -30t119.5 -80.5t74 -116.5t26.5 -137z M487 449q0 -75 51.5 -126t135.5 -51q100 0 157.5 66t57.5 162q0 77 -48 126.5t-130 49.5q-101 0 -162.5 -65t-61.5 -162zM674 1061q0 -43 28 -71.5t76 -28.5q54 0 85.5 37t31.5 87q0 43 -28 71t-76 28q-54 0 -85.5 -36.5t-31.5 -86.5z" />
<glyph unicode="9" horiz-adv-x="1085" d="M254 940q0 104 33 196.5t98 168.5t173.5 120.5t246.5 44.5t241.5 -64t154 -165t50.5 -221q0 -201 -125 -361l-510 -659h-360l383 494q-121 14 -210.5 81t-132 161.5t-42.5 203.5zM954 995q0 78 -47.5 132.5t-130.5 54.5q-101 0 -163 -62t-62 -153q0 -78 48 -133.5 t130 -55.5q102 0 163.5 63t61.5 154z" />
<glyph unicode=":" horiz-adv-x="686" d="M739 819q0 -92 -64.5 -156.5t-156.5 -64.5t-156.5 64.5t-64.5 156.5t64.5 156.5t156.5 64.5t156.5 -64.5t64.5 -156.5zM608 205q0 -92 -64.5 -156.5t-156.5 -64.5t-156.5 64.5t-64.5 156.5t64.5 156.5t156.5 64.5t156.5 -64.5t64.5 -156.5z" />
<glyph unicode=";" horiz-adv-x="686" d="M723 819q0 -92 -64.5 -156.5t-156.5 -64.5t-156.5 64.5t-64.5 156.5t64.5 156.5t156.5 64.5t156.5 -64.5t64.5 -156.5zM127 -315l158 315h-138l76 356h357l-76 -356l-199 -315h-178z" />
<glyph unicode="&#x3c;" horiz-adv-x="1032" d="M786 -16l-591 596l591 596l175 -175l-420 -421l420 -422z" />
<glyph unicode="=" horiz-adv-x="1347" d="M350 250v233h893v-233h-893zM350 672v233h893v-233h-893z" />
<glyph unicode="&#x3e;" horiz-adv-x="1032" d="M492 -16l-175 174l420 422l-420 421l175 175l591 -596z" />
<glyph unicode="?" horiz-adv-x="1019" d="M479 522l62 289h108q125 0 188.5 55.5t63.5 141.5q0 72 -43 123t-119 51q-95 0 -146.5 -57t-51.5 -142h-303q3 97 41 184.5t104.5 155t167 107.5t219.5 40q101 0 185 -36.5t137.5 -98t82.5 -139t29 -162.5q0 -99 -37 -190t-106 -163.5t-179 -115.5t-245 -43h-158z M776 225q0 -110 -76.5 -175.5t-185.5 -65.5q-81 0 -134.5 53.5t-53.5 132.5q0 60 34 115.5t89 91.5h278q23 -23 36 -65t13 -87z" />
<glyph unicode="@" horiz-adv-x="1644" d="M950 -16q-162 0 -297.5 55t-226 150t-140.5 224t-50 277q0 171 64.5 318.5t173 247.5t252.5 157t302 57q201 0 361 -77.5t252 -223.5t92 -338q0 -128 -32 -227t-86.5 -156t-120 -85.5t-138.5 -28.5q-68 0 -122 28.5t-79 75.5q-47 -46 -115 -73t-137 -27q-162 0 -251 100 t-89 252q0 189 125 319t320 130q109 0 184 -56l8 35h195l-97 -450q-14 -72 7 -117t84 -45q85 0 128.5 78t43.5 252q0 116 -43.5 207.5t-118.5 147.5t-170 85t-203 29q-120 0 -229 -41.5t-194.5 -117.5t-136 -194t-50.5 -262q0 -244 144.5 -389t389.5 -145q197 0 361 84 l67 -166q-94 -42 -210 -66t-218 -24zM936 530q91 0 149 58l66 303q-54 57 -141 57q-101 0 -167.5 -69t-66.5 -172q0 -82 40.5 -129.5t119.5 -47.5z" />
<glyph unicode="A" horiz-adv-x="1392" d="M-20 0l1030 1470l403 -1470h-328l-57 225h-530l-154 -225h-364zM883 791l-205 -299h280z" />
<glyph unicode="B" horiz-adv-x="1286" d="M137 0l309 1454h453q103 0 188.5 -31t140.5 -83t85 -118.5t30 -138.5q0 -96 -42.5 -184.5t-122.5 -148.5q143 -95 143 -283q0 -98 -36 -182t-106 -148t-181.5 -100.5t-252.5 -36.5h-608zM524 301h252q104 0 162.5 46t58.5 116q0 53 -36.5 90t-100.5 37h-274zM645 866h170 q96 0 149.5 47.5t53.5 118.5q0 53 -37 88t-104 35h-170z" />
<glyph unicode="C" horiz-adv-x="1499" d="M1542 252q-108 -128 -272 -198t-363 -70q-123 0 -231.5 36.5t-190 101t-140.5 151t-89.5 189t-30.5 212.5q0 123 34 239t104 217.5t168 177t234.5 119t295.5 43.5q198 0 353 -86t241 -231l-273 -186q-52 83 -145 135.5t-207 52.5q-106 0 -196.5 -36.5t-150.5 -98.5 t-94 -144.5t-34 -173.5q0 -82 23.5 -154t69 -128t119 -88.5t167.5 -32.5q121 0 219 48t162 130z" />
<glyph unicode="D" horiz-adv-x="1466" d="M528 299h170q106 0 200.5 33.5t167 94.5t115 154.5t42.5 206.5q0 159 -91.5 263t-250.5 104h-170zM137 0l309 1454h472q144 0 265.5 -50.5t202 -135.5t125.5 -194.5t45 -227.5q0 -173 -44 -313.5t-122.5 -238.5t-189.5 -165t-243 -98t-285 -31h-535z" />
<glyph unicode="E" horiz-adv-x="1120" d="M137 0l309 1454h902l-70 -324h-573l-52 -245h451l-68 -316h-450l-51 -245h573l-70 -324h-901z" />
<glyph unicode="F" horiz-adv-x="1058" d="M137 0l309 1454h861l-70 -324h-532l-52 -245h410l-68 -316h-409l-121 -569h-328z" />
<glyph unicode="G" horiz-adv-x="1544" d="M1481 162q-221 -178 -580 -178q-150 0 -279 55t-215.5 147t-135 212.5t-48.5 250.5q0 131 32.5 250.5t100.5 224t165.5 181.5t235.5 121t302 44q195 0 350 -86t244 -231l-273 -186q-55 83 -148 135.5t-204 52.5q-112 0 -203 -37t-150 -101.5t-90.5 -150t-31.5 -184.5 q0 -163 100 -273t279 -110q169 0 276 68l45 206h-350l203 308h526z" />
<glyph unicode="H" horiz-adv-x="1511" d="M137 0l309 1454h328l-121 -569h582l121 569h327l-309 -1454h-327l120 569h-581l-121 -569h-328z" />
<glyph unicode="I" horiz-adv-x="604" d="M137 0l309 1454h330l-309 -1454h-330z" />
<glyph unicode="J" horiz-adv-x="1032" d="M981 414q-50 -233 -161.5 -331.5t-340.5 -98.5q-167 0 -285 111.5t-118 277.5q0 47 8 88h328q-6 -30 -6 -58q0 -58 29 -90t77 -32q61 0 93.5 31.5t51.5 121.5l217 1020h328z" />
<glyph unicode="K" horiz-adv-x="1374" d="M1010 0l-402 682l-143 -682h-328l309 1454h328l-156 -727l660 727h391l-698 -770l399 -684h-360z" />
<glyph unicode="L" horiz-adv-x="1060" d="M137 0l309 1454h330l-239 -1128h563l-70 -326h-893z" />
<glyph unicode="M" horiz-adv-x="1724" d="M137 0l314 1470l532 -737l915 737l-311 -1470h-327l147 698l-477 -383l-307 426l-158 -741h-328z" />
<glyph unicode="N" horiz-adv-x="1519" d="M1378 -16l-743 817l-170 -801h-328l314 1470l743 -817l170 801h328z" />
<glyph unicode="O" horiz-adv-x="1626" d="M537 694q0 -78 24.5 -148.5t70.5 -126t119 -88t164 -32.5q141 0 251 64t167.5 168t57.5 229q0 78 -24.5 148.5t-70.5 126t-119.5 88t-164.5 32.5q-141 0 -251 -64t-167 -168t-57 -229zM1720 788q0 -124 -33.5 -241t-103 -219t-167 -179t-233.5 -121t-294 -44 q-151 0 -280.5 57t-216.5 151.5t-136 217.5t-49 256q0 124 34 241t103.5 219t167 179t233 121t293.5 44q151 0 280.5 -57t216.5 -151.5t136 -217.5t49 -256z" />
<glyph unicode="P" horiz-adv-x="1140" d="M137 0l309 1454h388q220 0 358.5 -125t138.5 -303q0 -117 -35 -215.5t-106.5 -177t-192.5 -122.5t-282 -44h-152l-98 -467h-328zM629 772h139q100 0 169 59t69 148q0 71 -46 119.5t-135 48.5h-116z" />
<glyph unicode="Q" horiz-adv-x="1667" d="M1720 788q0 -254 -137 -460l197 -191l-207 -211l-199 193q-207 -135 -485 -135q-151 0 -280.5 57t-216.5 151.5t-136 217.5t-49 256q0 124 34 241t103.5 219t167 179t233 121t293.5 44q151 0 280.5 -57t216.5 -151.5t136 -217.5t49 -256zM537 694q0 -78 24.5 -148.5 t70.5 -126t119 -88t164 -32.5q130 0 224 49l-207 203l207 211l207 -203q45 95 45 201q0 78 -24.5 148.5t-70.5 126t-119.5 88t-164.5 32.5q-141 0 -251 -64t-167 -168t-57 -229z" />
<glyph unicode="R" horiz-adv-x="1280" d="M920 0l-326 590h-6l-125 -590h-326l309 1454h463q99 0 182.5 -33t138.5 -87.5t85.5 -123t30.5 -141.5q0 -192 -113 -313t-301 -154l334 -602h-346zM647 866h187q77 0 131.5 45t54.5 117q0 53 -35 90t-90 37h-186z" />
<glyph unicode="S" horiz-adv-x="1060" d="M1110 434q0 -201 -133 -325.5t-361 -124.5q-184 0 -312 89.5t-191 243.5l282 162q40 -102 94 -146t140 -44q59 0 101 30.5t42 81.5q0 42 -28 76t-109 92l-74 54q-66 50 -112 93t-86 95t-60 109.5t-20 121.5q0 132 62 230.5t162.5 148t223.5 49.5q70 0 129.5 -11t121 -38 t115.5 -79t99 -128l-283 -161q-38 67 -80.5 89.5t-97.5 22.5q-51 0 -86 -26.5t-35 -69.5q0 -44 36 -84.5t120 -103.5l72 -54q268 -191 268 -393z" />
<glyph unicode="T" horiz-adv-x="1103" d="M385 0l240 1130h-346l69 324h1026l-69 -324h-347l-239 -1130h-334z" />
<glyph unicode="U" horiz-adv-x="1437" d="M1440 590q-69 -323 -226 -464.5t-450 -141.5q-145 0 -262.5 62.5t-187.5 180t-70 269.5q0 65 16 147l172 811h328l-180 -846q-11 -60 -11 -90q0 -108 64 -163.5t170 -55.5q247 0 307 287l184 868h330z" />
<glyph unicode="V" horiz-adv-x="1331" d="M662 -16l-373 1470h332l172 -741l485 741h383z" />
<glyph unicode="W" horiz-adv-x="1794" d="M510 -16l-191 1470h326l78 -672l479 688l168 -716l381 700h342l-817 -1470l-193 841z" />
<glyph unicode="X" horiz-adv-x="1380" d="M0 0l682 780l-309 674h338l192 -422l369 422h399l-631 -721l340 -733h-338l-223 481l-420 -481h-399z" />
<glyph unicode="Y" horiz-adv-x="1343" d="M508 0l129 610l-358 844h344l215 -526l440 526h405l-718 -844l-129 -610h-328z" />
<glyph unicode="Z" horiz-adv-x="1277" d="M16 0l897 1130h-571l70 324h1147l-897 -1130h614l-70 -324h-1190z" />
<glyph unicode="[" horiz-adv-x="595" d="M51 -326l402 1880h473l-47 -221h-213l-308 -1437h213l-47 -222h-473z" />
<glyph unicode="\" horiz-adv-x="1265" d="M987 0l-678 1454h279l678 -1454h-279z" />
<glyph unicode="]" horiz-adv-x="595" d="M805 1554l-402 -1880h-473l47 222h213l308 1437h-213l47 221h473z" />
<glyph unicode="^" horiz-adv-x="1191" d="M158 616l569 854l569 -854h-280l-289 433l-289 -433h-280z" />
<glyph unicode="_" horiz-adv-x="892" d="M-49 -233l49 233h893l-49 -233h-893z" />
<glyph unicode="`" horiz-adv-x="856" d="M694 1137l-221 317h328l92 -317h-199z" />
<glyph unicode="a" horiz-adv-x="1220" d="M821 0l8 61q-100 -77 -239 -77q-115 0 -211.5 63t-150.5 167t-54 222q0 168 72.5 305.5t206 218t301.5 80.5q154 0 243 -77l15 61h305l-217 -1024h-279zM676 266q105 0 186 68l74 352q-64 72 -178 72q-115 0 -195 -79t-80 -202q0 -99 53 -155t140 -56z" />
<glyph unicode="b" d="M121 0l309 1454h309l-100 -471q91 57 205 57q120 0 218 -63.5t151 -166.5t53 -222q0 -171 -67 -306.5t-200 -216.5t-313 -81q-158 0 -244 75l-12 -59h-309zM764 758q-110 0 -189 -70l-73 -350q61 -72 180 -72q115 0 194.5 78.5t79.5 202.5q0 99 -52.5 155t-139.5 56z" />
<glyph unicode="c" horiz-adv-x="1101" d="M1122 203q-82 -102 -201.5 -160.5t-261.5 -58.5q-113 0 -206.5 39.5t-153.5 106.5t-92.5 153.5t-32.5 181.5q0 162 73 293t207 206.5t304 75.5q154 0 267 -77t167 -193l-256 -152q-29 62 -84 98t-121 36q-107 0 -176.5 -73.5t-69.5 -186.5q0 -100 57 -160t144 -60 q132 0 217 113z" />
<glyph unicode="d" horiz-adv-x="1220" d="M821 0l8 61q-100 -77 -239 -77q-115 0 -211.5 63t-150.5 167t-54 222q0 168 72.5 305.5t206 218t301.5 80.5q155 0 241 -75l105 489h309l-309 -1454h-279zM676 266q105 0 186 68l74 352q-61 72 -178 72q-115 0 -195 -79t-80 -202q0 -99 53 -155t140 -56z" />
<glyph unicode="e" horiz-adv-x="1146" d="M1122 205q-81 -104 -200.5 -162.5t-262.5 -58.5q-113 0 -206.5 39.5t-153.5 106.5t-92.5 153.5t-32.5 181.5q0 159 71.5 289.5t206 208t306.5 77.5q206 0 329 -120t123 -338q0 -50 -10 -125h-729q9 -86 64.5 -135.5t134.5 -49.5q137 0 225 109zM729 793q-79 0 -144 -41.5 t-91 -114.5h426v10q0 71 -55.5 108.5t-135.5 37.5z" />
<glyph unicode="f" horiz-adv-x="741" d="M166 0l160 754h-133l57 270h164q-49 71 -49 168q0 41 17 83t53 84t105 68.5t160 26.5h320l-57 -270h-220q-100 0 -100 -82q0 -32 22 -55t62 -23h203l-58 -270h-237l-160 -754h-309z" />
<glyph unicode="g" horiz-adv-x="1204" d="M1135 96q0 -104 -41 -193.5t-117 -156.5t-191.5 -105t-257.5 -38q-278 0 -448 125l158 264q126 -107 290 -107q55 0 103.5 10.5t91 32.5t67.5 62.5t25 95.5q0 13 -4 37q-101 -64 -254 -64q-119 0 -208.5 62t-133 160t-43.5 215q0 146 68 269.5t198 199t297 75.5 q152 0 242 -73l12 57h309l-174 -825q11 -64 11 -103zM657 342q56 0 113 22t94 62l54 260q-64 72 -179 72q-114 0 -186 -64.5t-72 -171.5q0 -180 176 -180z" />
<glyph unicode="h" d="M121 0l309 1454h309l-108 -510q110 96 270 96q158 0 250 -108t92 -264q0 -54 -12 -107l-119 -561h-309l115 535q8 36 8 75q0 148 -152 148q-116 0 -205 -105l-139 -653h-309z" />
<glyph unicode="i" horiz-adv-x="552" d="M672 1169h-289q-25 36 -25 97q0 93 57.5 148.5t153.5 55.5q68 0 117 -41.5t49 -111.5q0 -85 -63 -148zM121 0l217 1024h311l-217 -1024h-311z" />
<glyph unicode="j" horiz-adv-x="552" d="M-172 -377l63 293h64q90 0 125 29t55 123l205 956h311l-219 -1024q-16 -74 -37.5 -130.5t-46 -96.5t-60.5 -67.5t-71 -44t-87.5 -25t-100 -11t-117.5 -2.5h-84zM674 1169h-289q-25 36 -25 97q0 93 57.5 148.5t153.5 55.5q68 0 117 -41.5t49 -111.5q0 -85 -63 -148z" />
<glyph unicode="k" horiz-adv-x="1116" d="M819 0l-280 512l-109 -512h-309l309 1454h309l-190 -897l420 467h368l-471 -522l277 -502h-324z" />
<glyph unicode="l" horiz-adv-x="552" d="M121 0l309 1454h311l-309 -1454h-311z" />
<glyph unicode="m" horiz-adv-x="1822" d="M1403 0l110 516q11 60 11 90q0 71 -32 111.5t-97 40.5q-43 0 -102.5 -34t-94.5 -93q-3 -58 -14 -101l-113 -530h-309l110 516q11 61 11 90q0 71 -32 111.5t-97 40.5q-41 0 -96 -30t-89 -79l-139 -649h-309l217 1024h305l-14 -76q35 37 97 64.5t134 27.5q172 0 268 -133 q54 52 138 92.5t194 40.5q181 0 280 -102.5t99 -271.5q0 -70 -14 -136l-113 -530h-309z" />
<glyph unicode="n" d="M121 0l217 1024h305l-14 -82q109 98 272 98q158 0 250 -108t92 -264q0 -54 -12 -107l-119 -561h-309l112 535q9 41 9 75q0 148 -150 148q-115 0 -205 -103l-139 -655h-309z" />
<glyph unicode="o" horiz-adv-x="1193" d="M479 492q0 -99 57 -159.5t144 -60.5q107 0 176.5 75t69.5 188q0 99 -57 158t-144 59q-107 0 -176.5 -73.5t-69.5 -186.5zM1237 561q0 -162 -73 -293.5t-207 -207.5t-304 -76q-113 0 -206.5 40t-153.5 107t-92.5 153t-32.5 181q0 162 73 293t207 206.5t304 75.5 q113 0 206.5 -39.5t153.5 -106.5t92.5 -152.5t32.5 -180.5z" />
<glyph unicode="p" d="M41 -377l297 1401h283l-11 -61q95 77 234 77q120 0 218 -63.5t151 -166.5t53 -222q0 -171 -67 -306.5t-200 -216.5t-313 -81q-155 0 -244 75l-92 -436h-309zM764 758q-107 0 -186 -70l-76 -350q64 -72 180 -72q115 0 194.5 78.5t79.5 202.5q0 99 -52.5 155t-139.5 56z " />
<glyph unicode="q" horiz-adv-x="1220" d="M1020 -377h-309l88 418q-89 -57 -209 -57q-115 0 -211.5 63t-150.5 167t-54 222q0 168 72.5 305.5t206 218t301.5 80.5q148 0 241 -75l13 59h309zM676 266q49 0 98.5 17.5t85.5 48.5l76 354q-66 72 -178 72q-115 0 -195 -79t-80 -202q0 -99 53 -155t140 -56z" />
<glyph unicode="r" horiz-adv-x="802" d="M121 0l217 1024h309l-18 -88q94 104 256 104q59 0 106 -16l-67 -322q-60 35 -150 35q-49 0 -105.5 -18t-97.5 -49l-141 -670h-309z" />
<glyph unicode="s" horiz-adv-x="849" d="M868 317q0 -158 -99.5 -245.5t-276.5 -87.5q-149 0 -253.5 64.5t-148.5 164.5l219 152q36 -64 77 -99t110 -35q38 0 61 16t23 44q0 19 -13 37t-24.5 26.5t-48.5 34.5l-70 47q-52 34 -85 61t-64 63t-45.5 78.5t-14.5 94.5q0 132 93.5 219.5t264.5 87.5q124 0 220.5 -50.5 t140.5 -129.5l-211 -155q-28 47 -67.5 70.5t-80.5 23.5q-35 0 -53 -16.5t-18 -41.5q0 -24 16 -42t62 -48l53 -35q121 -76 177 -144t56 -155z" />
<glyph unicode="t" horiz-adv-x="843" d="M188 754v270h218l34 154l340 153l-65 -307h291l-62 -270h-287l-73 -351q-6 -24 -6 -45q0 -40 23.5 -57.5t74.5 -17.5h168l-60 -283h-231q-140 0 -217.5 72.5t-77.5 208.5q0 59 14 122l76 351h-160z" />
<glyph unicode="u" d="M797 0l14 82q-112 -98 -276 -98q-143 0 -238.5 100.5t-95.5 273.5q0 67 14 136l113 530h309l-109 -516q-10 -55 -10 -92q0 -150 148 -150q135 0 208 119l136 639h309l-217 -1024h-305z" />
<glyph unicode="v" horiz-adv-x="1048" d="M528 -16l-354 1040h320l133 -459l315 459h363z" />
<glyph unicode="w" horiz-adv-x="1495" d="M317 0l-108 1024h315l47 -571l377 587l123 -604l297 588h336l-543 -1024h-235l-90 422l-283 -422h-236z" />
<glyph unicode="x" horiz-adv-x="1126" d="M-20 0l516 543l-256 481h329l138 -260l247 260h381l-491 -516l274 -508h-330l-155 287l-273 -287h-380z" />
<glyph unicode="y" horiz-adv-x="1052" d="M141 -377l219 377l-161 1024h317l80 -647l346 647h338l-815 -1401h-324z" />
<glyph unicode="z" horiz-adv-x="1044" d="M18 0l633 758h-409l55 266h930l-629 -756h438l-57 -268h-961z" />
<glyph unicode="{" horiz-adv-x="659" d="M590 -326h-154q-122 0 -188 61t-66 187q0 58 15 129l73 344q4 20 4 31q0 78 -90 78h-16l47 221h16q56 0 88.5 30.5t42.5 78.5l93 430q35 163 121.5 226.5t230.5 63.5h182l-47 -221h-96q-63 0 -95.5 -26.5t-45.5 -89.5l-87 -402q-18 -86 -62.5 -136.5t-104.5 -64.5 q92 -23 92 -135q0 -15 -8 -65l-86 -402q-7 -28 -7 -45q0 -38 23.5 -54.5t75.5 -16.5h96z" />
<glyph unicode="|" horiz-adv-x="690" d="M330 -377v1831h260v-1831h-260z" />
<glyph unicode="}" horiz-adv-x="659" d="M330 1554h153q254 0 254 -247q0 -63 -14 -129l-74 -344q-4 -20 -4 -31q0 -78 90 -78h17l-47 -221h-17q-56 0 -88.5 -30.5t-42.5 -78.5l-92 -430q-18 -85 -50.5 -143t-79 -89.5t-99.5 -45t-123 -13.5h-183l47 222h97q63 0 95.5 26.5t45.5 89.5l86 402q18 85 63 135.5 t105 64.5q-92 23 -92 136q0 15 8 65l86 402q6 24 6 45q0 38 -23.5 54.5t-74.5 16.5h-96z" />
<glyph unicode="~" horiz-adv-x="1234" d="M907 342l-332 193l-280 -170v276l280 172l332 -192l281 170v-277z" />
<glyph unicode="&#xa1;" horiz-adv-x="673" d="M90 -377l119 555l141 377h189l-19 -377l-119 -555h-311zM616 647h-278q-23 23 -36 65t-13 87q0 110 76.5 175.5t185.5 65.5q81 0 134.5 -53.5t53.5 -132.5q0 -60 -34 -115.5t-89 -91.5z" />
<glyph unicode="&#xa2;" horiz-adv-x="1169" d="M1149 203q-76 -96 -186 -153t-240 -64l-35 -166h-260l45 207q-129 57 -200.5 176t-71.5 262q0 221 133 378t352 189l37 172h260l-41 -188q96 -32 167 -98t110 -148l-256 -152q-29 62 -84 98t-121 36q-107 0 -176.5 -73.5t-69.5 -186.5q0 -100 57 -160t144 -60 q132 0 217 113z" />
<glyph unicode="&#xa3;" horiz-adv-x="1241" d="M252 606l51 240h170q-27 83 -27 149q0 98 36 184.5t101.5 151t162.5 102t212 37.5q181 0 307 -111t126 -276q0 -25 -7 -69h-303q2 8 2 24q0 63 -45.5 103.5t-113.5 40.5q-86 0 -136.5 -50.5t-50.5 -130.5q0 -65 42 -110t122 -45h137l-51 -240h-268l-68 -317h580l-62 -289 h-1046l61 289h156l68 317h-156z" />
<glyph unicode="&#xa4;" horiz-adv-x="1386" d="M403 182l-100 101l141 143q-90 126 -90 283q0 158 90 284l-141 144l100 100l140 -139q130 100 295 100q172 0 301 -104l145 143l100 -100l-147 -148q90 -131 90 -280q0 -155 -90 -281l147 -145l-100 -101l-145 144q-135 -101 -301 -101q-160 0 -293 99zM633 709 q0 -95 57 -156t148 -61q96 0 155.5 60.5t59.5 156.5q0 100 -59.5 162.5t-155.5 62.5q-91 0 -148 -62.5t-57 -162.5z" />
<glyph unicode="&#xa5;" horiz-adv-x="1400" d="M311 610l51 234h211l-258 610h351l213 -528l442 528h383l-520 -610h215l-51 -234h-363l-35 -157h365l-49 -234h-365l-45 -219h-311l45 219h-361l50 234h360l35 157h-363z" />
<glyph unicode="&#xa6;" horiz-adv-x="690" d="M330 -377v787h260v-787h-260zM330 670v784h260v-784h-260z" />
<glyph unicode="&#xa7;" horiz-adv-x="991" d="M858 -117q0 -120 -103 -202t-282 -82q-105 0 -197.5 56.5t-128.5 168.5l226 119q41 -101 119 -101q42 0 60.5 16t18.5 40t-17.5 52.5t-66.5 94.5l-172 229q-79 91 -79 228q0 125 73 230t197 147q-52 62 -77 96.5t-47 91.5t-22 119q0 120 103 202t282 82 q105 0 197.5 -56.5t128.5 -168.5l-225 -119q-41 101 -119 101q-42 0 -61 -16.5t-19 -39.5q0 -24 17.5 -52.5t66.5 -94.5l176 -238q78 -93 78 -223q0 -125 -73 -230t-197 -147q39 -47 58.5 -72.5t42.5 -65t32.5 -79t9.5 -86.5zM479 522q0 -51 31 -87t86 -36q67 0 107 41.5 t40 102.5q0 51 -30.5 87t-85.5 36q-67 0 -107.5 -42.5t-40.5 -101.5z" />
<glyph unicode="&#xa8;" horiz-adv-x="1191" d="M797 1325q0 -67 -48.5 -115.5t-115.5 -48.5t-115.5 48.5t-48.5 115.5t48.5 115.5t115.5 48.5t115.5 -48.5t48.5 -115.5zM1284 1325q0 -67 -48 -115.5t-116 -48.5t-116 48.5t-48 115.5t48 115.5t116 48.5t116 -48.5t48 -115.5z" />
<glyph unicode="&#xa9;" horiz-adv-x="1658" d="M985 -16q-151 0 -288.5 59t-237 158.5t-158.5 237t-59 288.5t59 288.5t158.5 237t237 158.5t288.5 59q202 0 373 -99.5t271 -270.5t100 -373t-100 -373t-271 -270.5t-373 -99.5zM985 199q143 0 264.5 71t192.5 192.5t71 264.5t-71 264.5t-192.5 192.5t-264.5 71 t-264.5 -71t-192.5 -192.5t-71 -264.5t71 -264.5t192.5 -192.5t264.5 -71zM1147 647l151 -106q-47 -75 -125 -119.5t-169 -44.5q-145 0 -248 102.5t-103 247.5t103 247.5t248 102.5q91 0 169 -44.5t125 -119.5l-153 -108q-20 41 -57 66.5t-84 25.5q-68 0 -113 -50t-45 -120 t45 -120t113 -50q47 0 84.5 25t58.5 65z" />
<glyph unicode="&#xaa;" horiz-adv-x="720" d="M651 840l4 32q-53 -43 -135 -43q-100 0 -173 82.5t-73 188.5q0 157 97.5 260.5t249.5 103.5q89 0 135 -43l6 33h203l-134 -614h-180zM580 1014q53 0 94 28l43 207q-36 31 -92 31q-62 0 -106 -42.5t-44 -109.5q0 -54 29 -84t76 -30z" />
<glyph unicode="&#xab;" horiz-adv-x="1177" d="M877 18l-232 494l440 494l181 -166l-322 -351l166 -354zM395 18l-231 494l440 494l180 -166l-321 -351l166 -354z" />
<glyph unicode="&#xac;" horiz-adv-x="1337" d="M965 90v371h-660v233h893v-604h-233z" />
<glyph unicode="&#xad;" horiz-adv-x="757" d="M180 430l64 295h581l-63 -295h-582z" />
<glyph unicode="&#xae;" horiz-adv-x="1658" d="M985 -16q-151 0 -288.5 59t-237 158.5t-158.5 237t-59 288.5t59 288.5t158.5 237t237 158.5t288.5 59q202 0 373 -99.5t271 -270.5t100 -373t-100 -373t-271 -270.5t-373 -99.5zM985 199q143 0 264.5 71t192.5 192.5t71 264.5t-71 264.5t-192.5 192.5t-264.5 71 t-264.5 -71t-192.5 -192.5t-71 -264.5t71 -264.5t192.5 -192.5t264.5 -71zM756 383v688h266q91 0 151 -61t60 -150q0 -61 -30 -110.5t-81 -75.5l178 -291h-198l-162 266v-266h-184zM936 799h63q24 0 39 15.5t15 37.5q0 23 -14 38t-38 15h-65v-106z" />
<glyph unicode="&#xaf;" horiz-adv-x="1011" d="M420 1186l41 196h676l-41 -196h-676z" />
<glyph unicode="&#xb0;" horiz-adv-x="653" d="M586 963q-103 0 -176.5 73t-73.5 176t73.5 176.5t176.5 73.5t176.5 -73.5t73.5 -176.5t-73.5 -176t-176.5 -73zM586 1120q38 0 65 27t27 65t-27 65.5t-65 27.5t-65 -27.5t-27 -65.5t27 -65t65 -27z" />
<glyph unicode="&#xb1;" horiz-adv-x="1378" d="M328 563v234h329v227h234v-227h330v-234h-330v-227h-234v227h-329zM328 0v233h893v-233h-893z" />
<glyph unicode="&#xb2;" horiz-adv-x="718" d="M190 840l324 325q-82 26 -127 91.5t-45 150.5q0 126 91.5 220.5t236.5 94.5q123 0 194.5 -79.5t71.5 -190.5q0 -34 -8.5 -66t-17.5 -53.5t-30.5 -49.5t-32 -40t-39 -39.5t-34.5 -34.5l-135 -141h246l-39 -188h-656zM541 1423q0 -40 23.5 -67t66.5 -27q47 0 75.5 31.5 t28.5 75.5q0 40 -22 68t-64 28q-49 0 -78.5 -32t-29.5 -77z" />
<glyph unicode="&#xb3;" horiz-adv-x="638" d="M844 1151q0 -63 -20 -119t-59.5 -102.5t-105.5 -73.5t-149 -27q-95 0 -159 45t-93 123l170 99q9 -34 35.5 -55t64.5 -21q55 0 89 33.5t34 81.5q0 42 -31 70t-96 28h-102l192 291h-245l41 188h538l-223 -334q60 -32 89.5 -93t29.5 -134z" />
<glyph unicode="&#xb4;" horiz-adv-x="901" d="M446 1137l236 317h365l-365 -317h-236z" />
<glyph unicode="&#xb6;" horiz-adv-x="1390" d="M651 532q-161 22 -266 139.5t-106 293.5q0 226 158.5 357.5t410.5 131.5h694l-389 -1831h-260l332 1561h-174l-332 -1561h-260z" />
<glyph unicode="&#xb7;" horiz-adv-x="686" d="M686 578q0 -92 -64.5 -157t-156.5 -65t-156.5 65t-64.5 157t64.5 156.5t156.5 64.5t156.5 -64.5t64.5 -156.5z" />
<glyph unicode="&#xb8;" horiz-adv-x="720" d="M113 -274l178 274h209l-127 -274h-260z" />
<glyph unicode="&#xb9;" horiz-adv-x="380" d="M270 840l144 676l248 202l-187 -878h-205z" />
<glyph unicode="&#xba;" horiz-adv-x="708" d="M477 1137q0 -53 31 -86t76 -33q57 0 93 40t36 101q0 53 -30 85t-75 32q-58 0 -94.5 -39.5t-36.5 -99.5zM915 1176q0 -149 -97 -248t-253 -99q-134 0 -212.5 85t-78.5 204q0 150 97.5 248t253.5 98q134 0 212 -84t78 -204z" />
<glyph unicode="&#xbb;" horiz-adv-x="1177" d="M999 1006l232 -494l-440 -494l-181 166l322 351l-166 354zM518 1006l232 -494l-441 -494l-180 166l322 351l-166 354z" />
<glyph unicode="&#xbc;" horiz-adv-x="1783" d="M328 582l143 675l248 203l-187 -878h-204zM174 0h283l1317 1454h-283zM1391 0l39 186h-449l768 693l-115 -545h74l-33 -148h-73l-39 -186h-172zM1339 334h123l29 135z" />
<glyph unicode="&#xbd;" horiz-adv-x="1835" d="M328 582l143 675l248 203l-187 -878h-204zM174 0h283l1317 1454h-283zM1036 0l324 326q-82 26 -127 91.5t-45 149.5q0 126 91.5 221t236.5 95q123 0 194.5 -80t71.5 -191q0 -34 -8.5 -66t-17.5 -53.5t-30.5 -49t-32.5 -39.5t-38.5 -39.5l-34.5 -34.5l-135 -142h246 l-39 -188h-656zM1386 584q0 -40 24 -67.5t67 -27.5q47 0 75.5 31.5t28.5 75.5q0 40 -22 68t-64 28q-49 0 -79 -31.5t-30 -76.5z" />
<glyph unicode="&#xbe;" horiz-adv-x="1947" d="M856 893q0 -63 -20 -119t-59.5 -102.5t-105.5 -73.5t-149 -27q-95 0 -159 45t-93 123l170 99q9 -34 36 -55t65 -21q55 0 89 33.5t34 81.5q0 42 -31 70t-96 28h-103l193 291h-246l41 188h539l-224 -334q60 -32 89.5 -93t29.5 -134zM336 0h282l1317 1454h-282zM1552 0 l39 186h-448l768 693l-115 -545h74l-33 -148h-74l-39 -186h-172zM1501 334h123l29 135z" />
<glyph unicode="&#xbf;" horiz-adv-x="1019" d="M1012 92q-3 -97 -41 -184.5t-105 -155t-167.5 -107.5t-219.5 -40q-101 0 -185 36.5t-137.5 98t-82.5 139t-29 162.5q0 79 24 153.5t72.5 139.5t116.5 114t162 77t203 28h147l-61 -289h-109q-125 0 -188.5 -55.5t-63.5 -140.5q0 -72 43 -123t119 -51q95 0 147 57t52 141 h303zM801 647h-279q-23 23 -36 65t-13 87q0 110 76.5 175.5t185.5 65.5q81 0 135 -53.5t54 -132.5q0 -60 -34 -115.5t-89 -91.5z" />
<glyph unicode="&#xc0;" horiz-adv-x="1392" d="M-20 0l1030 1470l403 -1470h-328l-57 225h-530l-154 -225h-364zM883 791l-205 -299h280zM934 1593l-195 297h324l80 -297h-209z" />
<glyph unicode="&#xc1;" horiz-adv-x="1392" d="M-20 0l1030 1470l403 -1470h-328l-57 225h-530l-154 -225h-364zM883 791l-205 -299h280zM913 1593l207 297h353l-322 -297h-238z" />
<glyph unicode="&#xc2;" horiz-adv-x="1392" d="M-20 0l1030 1470l403 -1470h-328l-57 225h-530l-154 -225h-364zM883 791l-205 -299h280zM748 1554l-78 189l399 164l320 -170l-95 -183l-239 127z" />
<glyph unicode="&#xc3;" horiz-adv-x="1392" d="M-20 0l1030 1470l403 -1470h-328l-57 225h-530l-154 -225h-364zM883 791l-205 -299h280zM641 1591l21 60q40 115 109.5 176t162.5 61q51 0 99.5 -20.5t88.5 -41t70 -20.5q34 0 53.5 18.5t42.5 67.5h207l-20 -59q-40 -115 -109 -176.5t-162 -61.5q-51 0 -100.5 20.5 t-90 41t-69.5 20.5q-34 0 -52.5 -18t-43.5 -68h-207z" />
<glyph unicode="&#xc4;" horiz-adv-x="1392" d="M-20 0l1030 1470l403 -1470h-328l-57 225h-530l-154 -225h-364zM883 791l-205 -299h280zM987 1741q0 -67 -48.5 -115.5t-115.5 -48.5t-115.5 48.5t-48.5 115.5t48.5 115.5t115.5 48.5t115.5 -48.5t48.5 -115.5zM1475 1741q0 -67 -48.5 -115.5t-115.5 -48.5t-115.5 48.5 t-48.5 115.5t48.5 115.5t115.5 48.5t115.5 -48.5t48.5 -115.5z" />
<glyph unicode="&#xc5;" horiz-adv-x="1392" d="M-20 0l1030 1470l403 -1470h-328l-57 225h-530l-154 -225h-364zM883 791l-205 -299h280zM985 1800q0 -40 28 -68t68 -28t68.5 28t28.5 68t-28.5 68t-68.5 28t-68 -28t-28 -68zM1327 1800q0 -101 -72.5 -173.5t-173.5 -72.5t-173 72.5t-72 173.5t72 173.5t173 72.5 t173.5 -72.5t72.5 -173.5z" />
<glyph unicode="&#xc6;" horiz-adv-x="1867" d="M1888 0h-803l-57 225h-530l-154 -225h-364l780 1116l-94 338h821l90 -324h-477l67 -245h353l88 -316h-353l68 -245h475zM680 492h278l-75 299z" />
<glyph unicode="&#xc7;" horiz-adv-x="1499" d="M625 -274l172 266q-173 25 -304.5 124.5t-199.5 244.5t-68 313q0 123 34 239t104 217.5t168 177t234.5 119t295.5 43.5q198 0 353 -86t241 -231l-273 -186q-52 83 -145 135.5t-207 52.5q-106 0 -196.5 -36.5t-150.5 -98.5t-94 -144.5t-34 -173.5q0 -82 23.5 -154t69 -128 t119 -88.5t167.5 -32.5q121 0 219 48t162 130l227 -225q-190 -224 -514 -262l-123 -264h-280z" />
<glyph unicode="&#xc8;" horiz-adv-x="1120" d="M137 0l309 1454h902l-70 -324h-573l-52 -245h451l-68 -316h-450l-51 -245h573l-70 -324h-901zM852 1593l-195 297h324l80 -297h-209z" />
<glyph unicode="&#xc9;" horiz-adv-x="1120" d="M137 0l309 1454h902l-70 -324h-573l-52 -245h451l-68 -316h-450l-51 -245h573l-70 -324h-901zM739 1593l207 297h352l-321 -297h-238z" />
<glyph unicode="&#xca;" horiz-adv-x="1120" d="M137 0l309 1454h902l-70 -324h-573l-52 -245h451l-68 -316h-450l-51 -245h573l-70 -324h-901zM639 1554l-78 189l400 164l319 -170l-94 -183l-240 127z" />
<glyph unicode="&#xcb;" horiz-adv-x="1120" d="M881 1741q0 -67 -48.5 -115.5t-115.5 -48.5t-115.5 48.5t-48.5 115.5t48.5 115.5t115.5 48.5t115.5 -48.5t48.5 -115.5zM1368 1741q0 -67 -48 -115.5t-116 -48.5t-116 48.5t-48 115.5t48 115.5t116 48.5t116 -48.5t48 -115.5zM137 0l309 1454h902l-70 -324h-573l-52 -245 h451l-68 -316h-450l-51 -245h573l-70 -324h-901z" />
<glyph unicode="&#xcc;" horiz-adv-x="604" d="M137 0l309 1454h330l-309 -1454h-330zM567 1593l-194 297h323l80 -297h-209z" />
<glyph unicode="&#xcd;" horiz-adv-x="604" d="M137 0l309 1454h330l-309 -1454h-330zM455 1593l207 297h352l-322 -297h-237z" />
<glyph unicode="&#xce;" horiz-adv-x="604" d="M137 0l309 1454h330l-309 -1454h-330zM354 1554l-78 189l400 164l319 -170l-94 -183l-239 127z" />
<glyph unicode="&#xcf;" horiz-adv-x="604" d="M639 1720q0 -68 -48.5 -116t-115.5 -48t-115.5 48t-48.5 116t48.5 116t115.5 48t115.5 -48t48.5 -116zM1024 1720q0 -68 -48 -116t-116 -48t-116 48t-48 116t48 116t116 48t116 -48t48 -116zM137 0l309 1454h330l-309 -1454h-330z" />
<glyph unicode="&#xd0;" horiz-adv-x="1538" d="M150 584l59 286h182l125 584h471q144 0 266 -50.5t202.5 -135.5t125.5 -194.5t45 -227.5q0 -173 -44 -313.5t-123 -238.5t-190 -165t-243 -98t-285 -31h-534l123 584h-180zM598 299h170q106 0 200.5 33.5t166.5 94.5t114.5 154.5t42.5 206.5q0 159 -91.5 263t-250.5 104 h-170l-61 -285h182l-59 -286h-185z" />
<glyph unicode="&#xd1;" horiz-adv-x="1519" d="M1378 -16l-743 817l-170 -801h-328l314 1470l743 -817l170 801h328zM705 1591l20 60q40 115 109.5 176t162.5 61q51 0 99.5 -20.5t88.5 -41t70 -20.5q34 0 54.5 18.5t42.5 67.5h207l-21 -59q-40 -115 -108.5 -176.5t-161.5 -61.5q-51 0 -100.5 20.5t-90 41t-69.5 20.5 q-34 0 -53.5 -18t-43.5 -68h-206z" />
<glyph unicode="&#xd2;" horiz-adv-x="1626" d="M537 694q0 -78 24.5 -148.5t70.5 -126t119 -88t164 -32.5q141 0 251 64t167.5 168t57.5 229q0 78 -24.5 148.5t-70.5 126t-119.5 88t-164.5 32.5q-141 0 -251 -64t-167 -168t-57 -229zM1720 788q0 -124 -33.5 -241t-103 -219t-167 -179t-233.5 -121t-294 -44 q-151 0 -280.5 57t-216.5 151.5t-136 217.5t-49 256q0 124 34 241t103.5 219t167 179t233 121t293.5 44q151 0 280.5 -57t216.5 -151.5t136 -217.5t49 -256zM989 1593l-194 297h323l80 -297h-209z" />
<glyph unicode="&#xd3;" horiz-adv-x="1626" d="M537 694q0 -78 24.5 -148.5t70.5 -126t119 -88t164 -32.5q141 0 251 64t167.5 168t57.5 229q0 78 -24.5 148.5t-70.5 126t-119.5 88t-164.5 32.5q-141 0 -251 -64t-167 -168t-57 -229zM1720 788q0 -124 -33.5 -241t-103 -219t-167 -179t-233.5 -121t-294 -44 q-151 0 -280.5 57t-216.5 151.5t-136 217.5t-49 256q0 124 34 241t103.5 219t167 179t233 121t293.5 44q151 0 280.5 -57t216.5 -151.5t136 -217.5t49 -256zM877 1593l206 297h353l-322 -297h-237z" />
<glyph unicode="&#xd4;" horiz-adv-x="1626" d="M537 694q0 -78 24.5 -148.5t70.5 -126t119 -88t164 -32.5q141 0 251 64t167.5 168t57.5 229q0 78 -24.5 148.5t-70.5 126t-119.5 88t-164.5 32.5q-141 0 -251 -64t-167 -168t-57 -229zM1720 788q0 -124 -33.5 -241t-103 -219t-167 -179t-233.5 -121t-294 -44 q-151 0 -280.5 57t-216.5 151.5t-136 217.5t-49 256q0 124 34 241t103.5 219t167 179t233 121t293.5 44q151 0 280.5 -57t216.5 -151.5t136 -217.5t49 -256zM778 1554l-78 189l400 164l319 -170l-94 -183l-240 127z" />
<glyph unicode="&#xd5;" horiz-adv-x="1626" d="M537 694q0 -78 24.5 -148.5t70.5 -126t119 -88t164 -32.5q141 0 251 64t167.5 168t57.5 229q0 78 -24.5 148.5t-70.5 126t-119.5 88t-164.5 32.5q-141 0 -251 -64t-167 -168t-57 -229zM1720 788q0 -124 -33.5 -241t-103 -219t-167 -179t-233.5 -121t-294 -44 q-151 0 -280.5 57t-216.5 151.5t-136 217.5t-49 256q0 124 34 241t103.5 219t167 179t233 121t293.5 44q151 0 280.5 -57t216.5 -151.5t136 -217.5t49 -256zM711 1591l20 60q40 115 110 176t163 61q51 0 99.5 -20.5t88.5 -41t70 -20.5q34 0 53.5 18.5t42.5 67.5h207l-21 -59 q-40 -115 -108.5 -176.5t-161.5 -61.5q-51 0 -100.5 20.5t-90 41t-69.5 20.5q-34 0 -52.5 -18t-43.5 -68h-207z" />
<glyph unicode="&#xd6;" horiz-adv-x="1626" d="M537 694q0 -78 24.5 -148.5t70.5 -126t119 -88t164 -32.5q141 0 251 64t167.5 168t57.5 229q0 78 -24.5 148.5t-70.5 126t-119.5 88t-164.5 32.5q-141 0 -251 -64t-167 -168t-57 -229zM1720 788q0 -124 -33.5 -241t-103 -219t-167 -179t-233.5 -121t-294 -44 q-151 0 -280.5 57t-216.5 151.5t-136 217.5t-49 256q0 124 34 241t103.5 219t167 179t233 121t293.5 44q151 0 280.5 -57t216.5 -151.5t136 -217.5t49 -256zM1059 1741q0 -67 -48.5 -115.5t-115.5 -48.5t-115.5 48.5t-48.5 115.5t48.5 115.5t115.5 48.5t115.5 -48.5 t48.5 -115.5zM1546 1741q0 -67 -48 -115.5t-116 -48.5q-67 0 -115 48t-48 116t48 116t115 48q68 0 116 -48.5t48 -115.5z" />
<glyph unicode="&#xd7;" horiz-adv-x="1280" d="M494 111l-166 163l262 263l-262 262l166 166l260 -265l264 265l164 -166l-262 -262l262 -263l-164 -163l-264 260z" />
<glyph unicode="&#xd8;" horiz-adv-x="1646" d="M391 -37l-180 184l125 125q-119 175 -119 394q0 124 34 241t103.5 219t167 179t233.5 121t294 44q211 0 376 -108l129 129l183 -184l-127 -127q121 -175 121 -392q0 -124 -34 -241t-103 -219t-166.5 -179t-234 -121t-294.5 -44q-214 0 -379 108zM1401 760q0 92 -35 176 l-606 -604q67 -33 166 -33q141 0 251 64t167 168t57 229zM547 694q0 -95 35 -176l604 604q-78 33 -164 33q-141 0 -251 -64t-167 -168t-57 -229z" />
<glyph unicode="&#xd9;" horiz-adv-x="1437" d="M1440 590q-69 -323 -226 -464.5t-450 -141.5q-145 0 -262.5 62.5t-187.5 180t-70 269.5q0 65 16 147l172 811h328l-180 -846q-11 -60 -11 -90q0 -108 64 -163.5t170 -55.5q247 0 307 287l184 868h330zM983 1593l-195 297h324l80 -297h-209z" />
<glyph unicode="&#xda;" horiz-adv-x="1437" d="M1440 590q-69 -323 -226 -464.5t-450 -141.5q-145 0 -262.5 62.5t-187.5 180t-70 269.5q0 65 16 147l172 811h328l-180 -846q-11 -60 -11 -90q0 -108 64 -163.5t170 -55.5q247 0 307 287l184 868h330zM870 1593l207 297h353l-322 -297h-238z" />
<glyph unicode="&#xdb;" horiz-adv-x="1437" d="M1440 590q-69 -323 -226 -464.5t-450 -141.5q-145 0 -262.5 62.5t-187.5 180t-70 269.5q0 65 16 147l172 811h328l-180 -846q-11 -60 -11 -90q0 -108 64 -163.5t170 -55.5q247 0 307 287l184 868h330zM768 1554l-78 189l400 164l319 -170l-94 -183l-240 127z" />
<glyph unicode="&#xdc;" horiz-adv-x="1437" d="M1440 590q-69 -323 -226 -464.5t-450 -141.5q-145 0 -262.5 62.5t-187.5 180t-70 269.5q0 65 16 147l172 811h328l-180 -846q-11 -60 -11 -90q0 -108 64 -163.5t170 -55.5q247 0 307 287l184 868h330zM1006 1741q0 -67 -48 -115.5t-116 -48.5t-116 48.5t-48 115.5 t48 115.5t116 48.5t116 -48.5t48 -115.5zM1493 1741q0 -67 -48.5 -115.5t-115.5 -48.5t-115.5 48.5t-48.5 115.5t48.5 115.5t115.5 48.5t115.5 -48.5t48.5 -115.5z" />
<glyph unicode="&#xdd;" horiz-adv-x="1343" d="M508 0l129 610l-358 844h344l215 -526l440 526h405l-718 -844l-129 -610h-328zM793 1593l206 297h353l-322 -297h-237z" />
<glyph unicode="&#xde;" horiz-adv-x="1153" d="M137 0l309 1454h328l-49 -233h98q110 0 198.5 -34t144.5 -93.5t86 -136t30 -164.5q0 -111 -40.5 -211t-116 -178.5t-194.5 -124.5t-265 -46h-152l-49 -233h-328zM580 539h139q100 0 168.5 58.5t68.5 147.5q0 71 -45.5 119.5t-134.5 48.5h-117z" />
<glyph unicode="&#xdf;" horiz-adv-x="1155" d="M121 0l241 1139q32 151 126.5 233t254.5 82h211l-59 -283h-94q-64 0 -98.5 -28t-47.5 -92l-6 -27h582l-57 -270l-189 -219q64 -53 102.5 -148t38.5 -192q0 -264 -172.5 -418t-464.5 -154l66 311q101 0 178.5 72t77.5 172q0 71 -47.5 118.5t-120.5 47.5l51 242l135 168 h-237l-160 -754h-311z" />
<glyph unicode="&#xe0;" horiz-adv-x="1220" d="M821 0l8 61q-100 -77 -239 -77q-115 0 -211.5 63t-150.5 167t-54 222q0 168 72.5 305.5t206 218t301.5 80.5q154 0 243 -77l15 61h305l-217 -1024h-279zM676 266q105 0 186 68l74 352q-64 72 -178 72q-115 0 -195 -79t-80 -202q0 -99 53 -155t140 -56zM756 1137l-221 317 h327l92 -317h-198z" />
<glyph unicode="&#xe1;" horiz-adv-x="1220" d="M821 0l8 61q-100 -77 -239 -77q-115 0 -211.5 63t-150.5 167t-54 222q0 168 72.5 305.5t206 218t301.5 80.5q154 0 243 -77l15 61h305l-217 -1024h-279zM676 266q105 0 186 68l74 352q-64 72 -178 72q-115 0 -195 -79t-80 -202q0 -99 53 -155t140 -56zM657 1137l236 317 h364l-364 -317h-236z" />
<glyph unicode="&#xe2;" horiz-adv-x="1220" d="M821 0l8 61q-100 -77 -239 -77q-115 0 -211.5 63t-150.5 167t-54 222q0 168 72.5 305.5t206 218t301.5 80.5q154 0 243 -77l15 61h305l-217 -1024h-279zM676 266q105 0 186 68l74 352q-64 72 -178 72q-115 0 -195 -79t-80 -202q0 -99 53 -155t140 -56zM578 1118l-86 189 l403 184l311 -203l-110 -170l-213 139z" />
<glyph unicode="&#xe3;" horiz-adv-x="1220" d="M821 0l8 61q-100 -77 -239 -77q-115 0 -211.5 63t-150.5 167t-54 222q0 168 72.5 305.5t206 218t301.5 80.5q154 0 243 -77l15 61h305l-217 -1024h-279zM676 266q105 0 186 68l74 352q-64 72 -178 72q-115 0 -195 -79t-80 -202q0 -99 53 -155t140 -56zM461 1135l20 59 q40 115 110 176.5t163 61.5q51 0 99.5 -20.5t88.5 -41t70 -20.5q34 0 53.5 18.5t42.5 67.5h207l-21 -60q-83 -237 -270 -237q-51 0 -100.5 20.5t-90 41t-69.5 20.5q-34 0 -52.5 -18t-43.5 -68h-207z" />
<glyph unicode="&#xe4;" horiz-adv-x="1220" d="M821 0l8 61q-100 -77 -239 -77q-115 0 -211.5 63t-150.5 167t-54 222q0 168 72.5 305.5t206 218t301.5 80.5q154 0 243 -77l15 61h305l-217 -1024h-279zM676 266q105 0 186 68l74 352q-64 72 -178 72q-115 0 -195 -79t-80 -202q0 -99 53 -155t140 -56zM817 1325 q0 -67 -48.5 -115.5t-115.5 -48.5t-115.5 48.5t-48.5 115.5t48.5 115.5t115.5 48.5t115.5 -48.5t48.5 -115.5zM1305 1325q0 -67 -48.5 -115.5t-115.5 -48.5t-115.5 48.5t-48.5 115.5t48.5 115.5t115.5 48.5t115.5 -48.5t48.5 -115.5z" />
<glyph unicode="&#xe5;" horiz-adv-x="1220" d="M821 0l8 61q-100 -77 -239 -77q-115 0 -211.5 63t-150.5 167t-54 222q0 168 72.5 305.5t206 218t301.5 80.5q154 0 243 -77l15 61h305l-217 -1024h-279zM676 266q105 0 186 68l74 352q-64 72 -178 72q-115 0 -195 -79t-80 -202q0 -99 53 -155t140 -56zM809 1364 q0 -40 28 -68t68 -28t68 28t28 68t-28 68t-68 28t-68 -28t-28 -68zM1151 1364q0 -101 -72.5 -173.5t-173.5 -72.5t-173.5 72.5t-72.5 173.5t72.5 173.5t173.5 72.5t173.5 -72.5t72.5 -173.5z" />
<glyph unicode="&#xe6;" horiz-adv-x="1748" d="M1724 205q-81 -105 -200.5 -163t-261.5 -58q-212 0 -344 129q-183 -129 -441 -129q-160 0 -264 77t-104 220q0 164 117 256t331 92q125 0 227 -54q7 24 7 39q0 73 -58 107.5t-149 34.5q-70 0 -144 -17.5t-125 -44.5l19 289q160 57 321 57q200 0 316 -135q157 135 389 135 q206 0 329 -120t123 -338q0 -50 -10 -125h-729q9 -86 64.5 -135.5t134.5 -49.5q137 0 225 109zM1331 793q-79 0 -144 -41.5t-91 -114.5h426v10q0 71 -55.5 108.5t-135.5 37.5zM516 242q65 0 121.5 18.5t89.5 52.5l12 58q-65 47 -184 47q-70 0 -115 -26.5t-45 -72.5 q0 -41 35.5 -59t85.5 -18z" />
<glyph unicode="&#xe7;" horiz-adv-x="1103" d="M387 -274l172 266q-120 21 -209 92t-132.5 169.5t-43.5 211.5q0 162 73 293t207 206.5t304 75.5q154 0 267 -77t167 -193l-256 -152q-29 62 -84 98t-121 36q-107 0 -176.5 -73.5t-69.5 -186.5q0 -100 57 -160t144 -60q132 0 217 113l219 -182q-137 -169 -352 -209 l-123 -268h-260z" />
<glyph unicode="&#xe8;" horiz-adv-x="1146" d="M1122 205q-81 -104 -200.5 -162.5t-262.5 -58.5q-113 0 -206.5 39.5t-153.5 106.5t-92.5 153.5t-32.5 181.5q0 159 71.5 289.5t206 208t306.5 77.5q206 0 329 -120t123 -338q0 -50 -10 -125h-729q9 -86 64.5 -135.5t134.5 -49.5q137 0 225 109zM729 793q-79 0 -144 -41.5 t-91 -114.5h426v10q0 71 -55.5 108.5t-135.5 37.5zM721 1137l-221 317h327l93 -317h-199z" />
<glyph unicode="&#xe9;" horiz-adv-x="1146" d="M1122 205q-81 -104 -200.5 -162.5t-262.5 -58.5q-113 0 -206.5 39.5t-153.5 106.5t-92.5 153.5t-32.5 181.5q0 159 71.5 289.5t206 208t306.5 77.5q206 0 329 -120t123 -338q0 -50 -10 -125h-729q9 -86 64.5 -135.5t134.5 -49.5q137 0 225 109zM729 793q-79 0 -144 -41.5 t-91 -114.5h426v10q0 71 -55.5 108.5t-135.5 37.5zM600 1137l236 317h364l-364 -317h-236z" />
<glyph unicode="&#xea;" horiz-adv-x="1146" d="M1122 205q-81 -104 -200.5 -162.5t-262.5 -58.5q-113 0 -206.5 39.5t-153.5 106.5t-92.5 153.5t-32.5 181.5q0 159 71.5 289.5t206 208t306.5 77.5q206 0 329 -120t123 -338q0 -50 -10 -125h-729q9 -86 64.5 -135.5t134.5 -49.5q137 0 225 109zM729 793q-79 0 -144 -41.5 t-91 -114.5h426v10q0 71 -55.5 108.5t-135.5 37.5zM502 1118l-86 189l403 184l311 -203l-110 -170l-213 139z" />
<glyph unicode="&#xeb;" horiz-adv-x="1146" d="M1122 205q-81 -104 -200.5 -162.5t-262.5 -58.5q-113 0 -206.5 39.5t-153.5 106.5t-92.5 153.5t-32.5 181.5q0 159 71.5 289.5t206 208t306.5 77.5q206 0 329 -120t123 -338q0 -50 -10 -125h-729q9 -86 64.5 -135.5t134.5 -49.5q137 0 225 109zM729 793q-79 0 -144 -41.5 t-91 -114.5h426v10q0 71 -55.5 108.5t-135.5 37.5zM737 1325q0 -67 -48.5 -115.5t-115.5 -48.5t-115 48t-48 116t48 116t115 48t115.5 -48.5t48.5 -115.5zM1225 1325q0 -67 -48.5 -115.5t-115.5 -48.5t-115.5 48.5t-48.5 115.5t48.5 115.5t115.5 48.5t115.5 -48.5 t48.5 -115.5z" />
<glyph unicode="&#xec;" horiz-adv-x="552" d="M121 0l217 1024h311l-217 -1024h-311zM463 1137l-221 317h327l93 -317h-199z" />
<glyph unicode="&#xed;" horiz-adv-x="552" d="M121 0l217 1024h311l-217 -1024h-311zM319 1137l236 317h365l-365 -317h-236z" />
<glyph unicode="&#xee;" horiz-adv-x="552" d="M121 0l217 1024h311l-217 -1024h-311zM258 1118l-86 189l403 184l312 -203l-111 -170l-213 139z" />
<glyph unicode="&#xef;" horiz-adv-x="552" d="M522 1284q0 -68 -48 -116t-116 -48q-67 0 -115 48t-48 116t48 116t115 48q68 0 116 -48t48 -116zM907 1284q0 -68 -48.5 -116t-115.5 -48t-115 48t-48 116t48 116t115 48t115.5 -48t48.5 -116zM121 0l217 1024h311l-217 -1024h-311z" />
<glyph unicode="&#xf0;" horiz-adv-x="1191" d="M461 1100l41 196h155l-65 158h305l68 -158h252l-41 -196h-127l122 -285q66 -155 66 -254q0 -119 -45 -225.5t-122 -184t-186 -122.5t-231 -45q-113 0 -206.5 39.5t-153.5 106.5t-92.5 153.5t-32.5 181.5q0 158 76 289.5t210.5 208.5t297.5 77h14l-25 60h-280zM479 492 q0 -100 57 -160t144 -60q107 0 176.5 74.5t69.5 188.5q0 99 -57 158t-144 59q-107 0 -176.5 -73.5t-69.5 -186.5z" />
<glyph unicode="&#xf1;" d="M121 0l217 1024h305l-14 -82q109 98 272 98q158 0 250 -108t92 -264q0 -54 -12 -107l-119 -561h-309l112 535q9 41 9 75q0 148 -150 148q-115 0 -205 -103l-139 -655h-309zM463 1135l20 59q40 115 110 176.5t163 61.5q51 0 99.5 -20.5t88.5 -41t70 -20.5q34 0 53.5 18.5 t42.5 67.5h207l-21 -60q-83 -237 -270 -237q-51 0 -100.5 20.5t-90 41t-69.5 20.5q-34 0 -52.5 -18t-43.5 -68h-207z" />
<glyph unicode="&#xf2;" horiz-adv-x="1193" d="M479 492q0 -99 57 -159.5t144 -60.5q107 0 176.5 75t69.5 188q0 99 -57 158t-144 59q-107 0 -176.5 -73.5t-69.5 -186.5zM1237 561q0 -162 -73 -293.5t-207 -207.5t-304 -76q-113 0 -206.5 40t-153.5 107t-92.5 153t-32.5 181q0 162 73 293t207 206.5t304 75.5 q113 0 206.5 -39.5t153.5 -106.5t92.5 -152.5t32.5 -180.5zM715 1137l-221 317h327l92 -317h-198z" />
<glyph unicode="&#xf3;" horiz-adv-x="1193" d="M479 492q0 -99 57 -159.5t144 -60.5q107 0 176.5 75t69.5 188q0 99 -57 158t-144 59q-107 0 -176.5 -73.5t-69.5 -186.5zM1237 561q0 -162 -73 -293.5t-207 -207.5t-304 -76q-113 0 -206.5 40t-153.5 107t-92.5 153t-32.5 181q0 162 73 293t207 206.5t304 75.5 q113 0 206.5 -39.5t153.5 -106.5t92.5 -152.5t32.5 -180.5zM612 1137l236 317h364l-364 -317h-236z" />
<glyph unicode="&#xf4;" horiz-adv-x="1193" d="M479 492q0 -99 57 -159.5t144 -60.5q107 0 176.5 75t69.5 188q0 99 -57 158t-144 59q-107 0 -176.5 -73.5t-69.5 -186.5zM1237 561q0 -162 -73 -293.5t-207 -207.5t-304 -76q-113 0 -206.5 40t-153.5 107t-92.5 153t-32.5 181q0 162 73 293t207 206.5t304 75.5 q113 0 206.5 -39.5t153.5 -106.5t92.5 -152.5t32.5 -180.5zM512 1118l-86 189l403 184l312 -203l-111 -170l-213 139z" />
<glyph unicode="&#xf5;" horiz-adv-x="1193" d="M377 1135l20 59q40 115 110 176.5t163 61.5q51 0 99.5 -20.5t88.5 -41t70 -20.5q34 0 53.5 18.5t42.5 67.5h207l-21 -60q-83 -237 -270 -237q-51 0 -100.5 20.5t-90 41t-69.5 20.5q-34 0 -52.5 -18t-43.5 -68h-207zM479 492q0 -99 57 -159.5t144 -60.5q107 0 176.5 75 t69.5 188q0 99 -57 158t-144 59q-107 0 -176.5 -73.5t-69.5 -186.5zM1237 561q0 -162 -73 -293.5t-207 -207.5t-304 -76q-113 0 -206.5 40t-153.5 107t-92.5 153t-32.5 181q0 162 73 293t207 206.5t304 75.5q113 0 206.5 -39.5t153.5 -106.5t92.5 -152.5t32.5 -180.5z" />
<glyph unicode="&#xf6;" horiz-adv-x="1193" d="M479 492q0 -99 57 -159.5t144 -60.5q107 0 176.5 75t69.5 188q0 99 -57 158t-144 59q-107 0 -176.5 -73.5t-69.5 -186.5zM1237 561q0 -162 -73 -293.5t-207 -207.5t-304 -76q-113 0 -206.5 40t-153.5 107t-92.5 153t-32.5 181q0 162 73 293t207 206.5t304 75.5 q113 0 206.5 -39.5t153.5 -106.5t92.5 -152.5t32.5 -180.5zM733 1325q0 -67 -48.5 -115.5t-115.5 -48.5t-115 48t-48 116t48 116t115 48t115.5 -48.5t48.5 -115.5zM1221 1325q0 -67 -48.5 -115.5t-115.5 -48.5t-115.5 48.5t-48.5 115.5t48.5 115.5t115.5 48.5t115.5 -48.5 t48.5 -115.5z" />
<glyph unicode="&#xf7;" horiz-adv-x="1257" d="M915 236q0 -68 -48 -116t-115 -48q-68 0 -116 48t-48 116q0 67 48 115t116 48t115.5 -47.5t47.5 -115.5zM915 920q0 -68 -48 -116t-115 -48q-68 0 -116 48t-48 116q0 67 48 115t116 48t115.5 -47.5t47.5 -115.5zM305 461v233h893v-233h-893z" />
<glyph unicode="&#xf8;" horiz-adv-x="1204" d="M182 -14l-80 94l148 123q-72 119 -72 262q0 162 73 293t207 206.5t304 75.5q204 0 336 -122l131 110l80 -96l-133 -111q71 -118 71 -260q0 -162 -73 -293.5t-206.5 -207.5t-303.5 -76q-206 0 -338 122zM936 535q0 37 -10 75l-357 -299q48 -39 121 -39q107 0 176.5 75 t69.5 188zM489 492q0 -32 11 -78l354 299q-51 39 -119 39q-107 0 -176.5 -73.5t-69.5 -186.5z" />
<glyph unicode="&#xf9;" d="M797 0l14 82q-112 -98 -276 -98q-143 0 -238.5 100.5t-95.5 273.5q0 67 14 136l113 530h309l-109 -516q-10 -55 -10 -92q0 -150 148 -150q135 0 208 119l136 639h309l-217 -1024h-305zM791 1137l-222 317h328l92 -317h-198z" />
<glyph unicode="&#xfa;" d="M797 0l14 82q-112 -98 -276 -98q-143 0 -238.5 100.5t-95.5 273.5q0 67 14 136l113 530h309l-109 -516q-10 -55 -10 -92q0 -150 148 -150q135 0 208 119l136 639h309l-217 -1024h-305zM649 1137l236 317h364l-364 -317h-236z" />
<glyph unicode="&#xfb;" d="M797 0l14 82q-112 -98 -276 -98q-143 0 -238.5 100.5t-95.5 273.5q0 67 14 136l113 530h309l-109 -516q-10 -55 -10 -92q0 -150 148 -150q135 0 208 119l136 639h309l-217 -1024h-305zM588 1118l-86 189l403 184l312 -203l-111 -170l-213 139z" />
<glyph unicode="&#xfc;" d="M797 0l14 82q-112 -98 -276 -98q-143 0 -238.5 100.5t-95.5 273.5q0 67 14 136l113 530h309l-109 -516q-10 -55 -10 -92q0 -150 148 -150q135 0 208 119l136 639h309l-217 -1024h-305zM809 1325q0 -67 -48.5 -115.5t-115.5 -48.5t-115.5 48.5t-48.5 115.5t48.5 115.5 t115.5 48.5t115.5 -48.5t48.5 -115.5zM1296 1325q0 -68 -48 -116t-115 -48t-115.5 48.5t-48.5 115.5t48.5 115.5t115.5 48.5t115 -48t48 -116z" />
<glyph unicode="&#xfd;" horiz-adv-x="1050" d="M141 -377l219 377l-161 1024h317l80 -647l346 647h338l-815 -1401h-324zM557 1137l236 317h364l-364 -317h-236z" />
<glyph unicode="&#xfe;" d="M41 -377l297 1401l92 430h311l-112 -477q94 63 215 63q120 0 218 -63.5t151 -166.5t53 -222q0 -171 -67 -306.5t-200 -216.5t-313 -81q-155 0 -244 75l-92 -436h-309zM764 758q-107 0 -186 -70l-76 -350q64 -72 180 -72q115 0 194.5 78.5t79.5 202.5q0 99 -52.5 155 t-139.5 56z" />
<glyph unicode="&#xff;" horiz-adv-x="1050" d="M141 -377l219 377l-161 1024h317l80 -647l346 647h338l-815 -1401h-324zM717 1325q0 -67 -48.5 -115.5t-115.5 -48.5t-115.5 48.5t-48.5 115.5t48.5 115.5t115.5 48.5t115.5 -48.5t48.5 -115.5zM1204 1325q0 -67 -48 -115.5t-116 -48.5q-67 0 -115 48t-48 116t48 116 t115 48q68 0 116 -48.5t48 -115.5z" />
<glyph unicode="&#x152;" horiz-adv-x="2191" d="M1210 0l9 39q-151 -55 -330 -55q-151 0 -280.5 57t-216.5 151.5t-136 217.5t-49 256q0 124 34 241t103.5 219t167 179t233 121t293.5 44q262 0 449 -163l33 147h899l-70 -324h-719q63 -112 82 -245h463l-68 -316h-415q-41 -143 -111 -245h596l-70 -324h-897zM537 694 q0 -78 24.5 -148.5t70.5 -126t119 -88t164 -32.5q141 0 251 64t167.5 168t57.5 229q0 78 -24.5 148.5t-70.5 126t-119.5 88t-164.5 32.5q-141 0 -251 -64t-167 -168t-57 -229z" />
<glyph unicode="&#x153;" horiz-adv-x="1898" d="M1874 205q-81 -104 -200.5 -162.5t-262.5 -58.5q-232 0 -369 153q-147 -153 -389 -153q-113 0 -206.5 40t-153.5 107t-92.5 153t-32.5 181q0 162 73 293t207 206.5t304 75.5q227 0 346 -155q161 155 411 155q206 0 329.5 -120t123.5 -338q0 -50 -10 -125h-729 q9 -86 64 -135.5t134 -49.5q138 0 226 109zM479 492q0 -99 57 -159.5t144 -60.5q107 0 176.5 75t69.5 188q0 99 -57 158t-144 59q-107 0 -176.5 -73.5t-69.5 -186.5zM1481 793q-79 0 -144.5 -41.5t-91.5 -114.5h426v10q0 71 -55 108.5t-135 37.5z" />
<glyph unicode="&#x178;" horiz-adv-x="1343" d="M508 0l129 610l-358 844h344l215 -526l440 526h405l-718 -844l-129 -610h-328zM930 1741q0 -67 -48 -115.5t-116 -48.5t-116 48.5t-48 115.5t48 115.5t116 48.5t116 -48.5t48 -115.5zM1417 1741q0 -67 -48.5 -115.5t-115.5 -48.5t-115 48t-48 116t48 116t115 48 t115.5 -48.5t48.5 -115.5z" />
<glyph unicode="&#x2c6;" horiz-adv-x="1038" d="M524 1118l-86 189l404 184l311 -203l-111 -170l-213 139z" />
<glyph unicode="&#x2dc;" horiz-adv-x="1126" d="M410 1135l20 59q40 115 109.5 176.5t162.5 61.5q51 0 100 -20.5t89 -41t70 -20.5q34 0 53.5 18.5t42.5 67.5h207l-21 -60q-83 -237 -270 -237q-51 0 -100.5 20.5t-90 41t-69.5 20.5q-34 0 -53.5 -18t-43.5 -68h-206z" />
<glyph unicode="&#x2000;" horiz-adv-x="1023" />
<glyph unicode="&#x2001;" horiz-adv-x="2046" />
<glyph unicode="&#x2002;" horiz-adv-x="1023" />
<glyph unicode="&#x2003;" horiz-adv-x="2046" />
<glyph unicode="&#x2004;" horiz-adv-x="682" />
<glyph unicode="&#x2005;" horiz-adv-x="511" />
<glyph unicode="&#x2006;" horiz-adv-x="341" />
<glyph unicode="&#x2007;" horiz-adv-x="341" />
<glyph unicode="&#x2008;" horiz-adv-x="255" />
<glyph unicode="&#x2009;" horiz-adv-x="409" />
<glyph unicode="&#x200a;" horiz-adv-x="113" />
<glyph unicode="&#x2010;" horiz-adv-x="757" d="M180 430l64 295h581l-63 -295h-582z" />
<glyph unicode="&#x2011;" horiz-adv-x="757" d="M180 430l64 295h581l-63 -295h-582z" />
<glyph unicode="&#x2012;" horiz-adv-x="757" d="M180 430l64 295h581l-63 -295h-582z" />
<glyph unicode="&#x2013;" horiz-adv-x="1169" d="M180 430l66 295h991l-66 -295h-991z" />
<glyph unicode="&#x2014;" horiz-adv-x="1769" d="M180 430l66 295h1591l-65 -295h-1592z" />
<glyph unicode="&#x2018;" horiz-adv-x="630" d="M756 1454l-158 -315h137l-76 -357h-356l76 357l199 315h178z" />
<glyph unicode="&#x2019;" horiz-adv-x="630" d="M350 782l158 316h-137l75 356h357l-76 -356l-199 -316h-178z" />
<glyph unicode="&#x201a;" horiz-adv-x="630" d="M117 -315l157 315h-137l76 356h356l-75 -356l-199 -315h-178z" />
<glyph unicode="&#x201c;" horiz-adv-x="1089" d="M756 1454l-158 -315h137l-76 -357h-356l76 357l199 315h178zM1214 1454l-157 -315h137l-76 -357h-356l76 357l198 315h178z" />
<glyph unicode="&#x201d;" horiz-adv-x="1089" d="M350 782l158 316h-137l75 356h357l-76 -356l-199 -316h-178zM809 782l158 316h-138l76 356h357l-76 -356l-199 -316h-178z" />
<glyph unicode="&#x201e;" horiz-adv-x="1089" d="M117 -315l157 315h-137l76 356h356l-75 -356l-199 -315h-178zM575 -315l158 315h-137l76 356h356l-76 -356l-198 -315h-179z" />
<glyph unicode="&#x2022;" horiz-adv-x="835" d="M549 340q-116 0 -197.5 81.5t-81.5 196.5q0 116 82 197.5t197 81.5t196.5 -81.5t81.5 -197.5t-81.5 -197t-196.5 -81z" />
<glyph unicode="&#x2026;" horiz-adv-x="1767" d="M563 205q0 -92 -64.5 -156.5t-156.5 -64.5t-156.5 64.5t-64.5 156.5t64.5 156.5t156.5 64.5t156.5 -64.5t64.5 -156.5zM1149 205q0 -92 -64.5 -156.5t-156.5 -64.5t-156.5 64.5t-64.5 156.5t64.5 156.5t156.5 64.5t156.5 -64.5t64.5 -156.5zM1735 205q0 -92 -65 -156.5 t-157 -64.5t-156.5 64.5t-64.5 156.5t64.5 156.5t156.5 64.5t157 -64.5t65 -156.5z" />
<glyph unicode="&#x202f;" horiz-adv-x="409" />
<glyph unicode="&#x2039;" horiz-adv-x="696" d="M395 18l-231 494l440 494l180 -166l-321 -351l166 -354z" />
<glyph unicode="&#x203a;" horiz-adv-x="696" d="M518 1006l232 -494l-441 -494l-180 166l322 351l-166 354z" />
<glyph unicode="&#x205f;" horiz-adv-x="511" />
<glyph unicode="&#x20ac;" horiz-adv-x="1474" d="M219 795l76 135h127q40 114 111 211t170 171t230 116t279 42q283 0 471 -178l-157 -276q-61 75 -156 119.5t-211 44.5q-154 0 -266 -67.5t-172 -182.5h754l-76 -135h-725q-8 -44 -8 -103v-33h655l-78 -135h-553q43 -122 143.5 -187t229.5 -65q142 0 299 68l-72 -307 q-107 -49 -252 -49q-132 0 -245.5 42.5t-194 116.5t-134 171t-75.5 210h-227l76 135h139v7q0 75 10 129h-168z" />
<glyph unicode="&#x2122;" horiz-adv-x="1591" d="M956 727v735l365 -368l365 368v-735h-189v289l-176 -178l-176 178v-289h-189zM485 727v543h-168v184h525v-184h-168v-543h-189z" />
<glyph unicode="&#x25fc;" horiz-adv-x="1024" d="M0 1024h1024v-1024h-1024v1024z" />
<glyph unicode="&#xfb01;" horiz-adv-x="1294" d="M166 0l160 754h-133l57 270h164q-49 71 -49 168q0 41 17 83t53 84t105 68.5t160 26.5h320l-57 -270h-220q-100 0 -100 -82q0 -32 22 -55t62 -23h203l-58 -270h-237l-160 -754h-309zM1413 1169h-289q-24 34 -24 97q0 93 57.5 148.5t153.5 55.5q68 0 117 -41.5t49 -111.5 q0 -84 -64 -148zM862 0l217 1024h312l-217 -1024h-312z" />
<glyph unicode="&#xfb02;" horiz-adv-x="1294" d="M166 0l160 754h-133l57 270h164q-49 71 -49 168q0 41 17 83t53 84t105 68.5t160 26.5h320l-57 -270h-220q-100 0 -100 -82q0 -32 22 -55t62 -23h203l-58 -270h-237l-160 -754h-309zM862 0l309 1454h312l-309 -1454h-312z" />
</font>
</defs>
</svg>
