<svg version="1.1" id="Layer_1" xmlns="http://www.w3.org/2000/svg" x="0" y="0" viewBox="0 0 456 304" xml:space="preserve"><path fill="#999" d="M0 0h456v304H0z"/><path fill="#fff" d="M366.6 154.6v20.6h4.8v-15.7h6.8v-4.9zM348.2 154.6c-2.8 0-5.6 1.1-7.5 3s-3 4.7-3 7.5c0 6 4.5 10.5 10.5 10.5 3.4 0 6.6-1.3 8.4-3.6l.2-.2-3.4-3.6-.2.2c-.8.9-2.4 2.3-5.1 2.3-2.8 0-4.9-1.9-5.4-4.3h15.2v-1.5c0-3.2-1.1-5.8-2.8-7.5-1.7-1.8-4.1-2.8-6.9-2.8zm-5.3 7.9c.8-2.3 2.6-3.6 5.1-3.6 2.4 0 4.1 1.3 4.7 3.6h-9.8zM324 154.6h4.9v20.6H324zM324 146h4.9v5.1H324zM314.8 159.1l1.1-4.5h-6.2v-6.2l-4.9 2.4v3.8h-3.9l1.1 4.5h2.8v9.8c0 3.9 2.4 6.4 6.4 6.4h4.1v-4.5h-3c-2.2 0-2.6-.9-2.6-2.8v-8.8h5.1zM286.1 154.4c-2.2 0-4.1.8-5.4 1.9v-1.7h-4.9v20.6h4.9v-12.9c.8-2.3 2.3-3.4 4.5-3.4 2.8 0 4.3 2.2 4.3 4.3v12h4.9v-12c0-2.6-.7-4.9-2.1-6.4-1.5-1.4-3.7-2.4-6.2-2.4zM257.3 154.6c-2.8 0-5.6 1.1-7.5 3s-3 4.7-3 7.5c0 6 4.5 10.5 10.5 10.5 3.4 0 6.6-1.3 8.4-3.6l.2-.2-3.4-3.6-.2.2c-.8.9-2.4 2.3-5.1 2.3-2.8 0-4.9-1.9-5.4-4.3H267v-1.5c0-3.2-1.1-5.8-2.8-7.5-1.7-1.8-4.1-2.8-6.9-2.8zm-5.3 7.9c.7-2.3 2.6-3.6 5.1-3.6 2.4 0 4.1 1.3 4.7 3.6H252zM228.8 154.4c-1.9 0-3.8.6-5.1 1.5v-1.3h-4.9v27.9h4.9v-8.6c1.3.9 3.2 1.5 5.1 1.5 6 0 10.5-4.5 10.5-10.5s-4.5-10.5-10.5-10.5zm5.2 12c-.2.2-.2.2-.2.4v.2c-.6 1.7-2.1 3-3.9 3.4H227.3c-.7-.2-1.7-.6-2.3-.9-.4-.2-.7-.4-.9-.8l-.2-.2c-.2 0-.4-.2-.4-.4v-6.7l.4-.4.2-.2c.2-.2.6-.6.9-.8.8-.4 1.5-.8 2.3-.9h2.6c1.9.4 3.2 1.7 3.9 3.4v.2c.2.2.2.2.2.4.2.6.2 1.3.2 1.9 0 .5 0 1.2-.2 1.4zM199.3 175.2h4.9v-15.7h6.6v-4.9h-11.5zM173.3 159.1h11.1v3.8c-1.5-.6-3.4-.9-5.2-.9-2.4 0-4.5.8-6 1.9-1.5 1.1-2.2 2.8-2.2 4.9 0 1.9.7 3.6 2.1 4.9 1.5 1.3 3.6 2.1 6 2.1 2.3 0 4.1-.7 5.6-1.9v1.5h4.9v-20.6h-16.1v4.3zm11.2 9.8c-1.1 1.3-2.8 2.3-5.2 2.3-2.6 0-3.6-1.1-3.6-2.4 0-1.7 1.7-2.6 4.1-2.6 1.9 0 3.4.4 4.7 1.1v1.6zM154.9 154.4c-2.1 0-3.9.8-5.4 1.9v-9.9H145v28.9h4.7v-12.9c.8-2.3 2.3-3.4 4.5-3.4 2.8 0 4.3 2.2 4.3 4.3v12h4.7v-12c0-2.6-.7-4.9-2.3-6.4-1.5-1.5-3.6-2.5-6-2.5zM149.4 125.7h6.6v-4.6h-11.4v20.4h4.8zM126.8 120.7c-6.2 0-10.7 4.5-10.7 10.5 0 2.8 1.1 5.6 3 7.5s4.5 3 7.5 3 5.6-1.1 7.7-3c1.9-1.9 3-4.7 3-7.5 0-6-4.4-10.5-10.5-10.5zm-.2 16.3c-3.2 0-5.6-2.4-5.6-5.8s2.4-5.8 5.6-5.8c3.2 0 5.6 2.4 5.6 5.8 0 3.5-2.3 6-5.6 5.8zM132.6 168.7c-.9.9-2.3 2.1-4.5 2.1-3.4 0-5.6-2.4-5.6-5.8s2.4-5.8 5.6-5.8c2.3 0 3.8 1.1 4.5 2.1l.2.2 3.2-3.6c-2.1-2.3-4.7-3.4-7.9-3.4-6 0-10.5 4.5-10.5 10.5s4.5 10.5 10.5 10.5c3.2 0 5.8-1.1 7.9-3.4l.2-.2-3.4-3.4-.2.2zM78.2 141.5h4.9v-15.8h8v15.8H96v-15.8h8.1v15.8h4.7v-20.4H78.2z"/></svg>