<svg class="svg-sprites">
  <defs>

    <g id="logo" class="main-header__logo-g">
      <path d="M160 18.1v2.6h-3.6v8.4h-2.6v-11z"/>
      <path d="M149.2 23.6v.8h-8.1c.3 1.3 1.4 2.3 2.9 2.3 1.4 0 2.3-.7 2.7-1.2l.1-.1 1.8 1.9-.1.1c-1 1.2-2.7 1.9-4.5 1.9-3.2 0-5.6-2.4-5.6-5.6 0-1.5.6-3 1.6-4s2.5-1.6 4-1.6 2.8.5 3.7 1.5c.9.9 1.5 2.3 1.5 4zm-8-1.3h5.2c-.3-1.2-1.2-1.9-2.5-1.9s-2.3.7-2.7 1.9zM131.1 18.1h2.6v11h-2.6zM131.1 13.5h2.6v2.7h-2.6zM126.8 18.1l-.6 2.4h-2.7v4.7c0 1 .2 1.5 1.4 1.5h1.6v2.4h-2.2c-2.1 0-3.4-1.3-3.4-3.4v-5.2h-1.5l-.6-2.4h2.1v-2l2.6-1.3v3.3h3.3zM115.3 22.7v6.4h-2.6v-6.4c0-1.1-.8-2.3-2.3-2.3-1.2 0-2 .6-2.4 1.8v6.9h-2.6v-11h2.6v.9c.7-.6 1.7-1 2.9-1 1.3 0 2.5.5 3.3 1.3.7.8 1.1 2 1.1 3.4zM100.7 23.6v.8h-8.1c.3 1.3 1.4 2.3 2.9 2.3 1.4 0 2.3-.7 2.7-1.2l.1-.1 1.8 1.9-.1.1c-1 1.2-2.7 1.9-4.5 1.9-3.2 0-5.6-2.4-5.6-5.6 0-1.5.6-3 1.6-4s2.5-1.6 4-1.6 2.8.5 3.7 1.5c.9.9 1.5 2.3 1.5 4zm-8-1.3h5.2c-.3-1.2-1.2-1.9-2.5-1.9s-2.3.7-2.7 1.9zM80.3 18c3.2 0 5.6 2.4 5.6 5.6 0 3.2-2.4 5.6-5.6 5.6-1 0-2-.3-2.7-.8V33H75V18.1h2.6v.7c.7-.5 1.7-.8 2.7-.8zm2.9 5.6c0-.3 0-.7-.1-1 0-.1 0-.1-.1-.2v-.1c-.4-.9-1.1-1.6-2.1-1.8h-1.2-.1-.1c-.4.1-.8.3-1.2.5-.2.1-.4.3-.5.4l-.1.1-.2.2v3.6c0 .1.1.2.2.2l.1.1c.1.2.3.3.5.4.3.2.8.4 1.2.5h1.4c1-.2 1.8-.9 2.1-1.8v-.1c0-.1 0-.1.1-.2s.1-.5.1-.8zM70.7 18.1v2.6h-3.5v8.4h-2.6v-11zM59.3 18.1v11h-2.6v-.8c-.8.6-1.8 1-3 1-1.3 0-2.4-.4-3.2-1.1-.7-.7-1.1-1.6-1.1-2.6 0-1.1.4-2 1.2-2.6.8-.6 1.9-1 3.2-1 1 0 2 .2 2.8.5v-2h-5.9v-2.4h8.6zm-2.6 7.6v-.9c-.7-.4-1.5-.6-2.5-.6-1.3 0-2.2.5-2.2 1.4 0 .7.5 1.3 1.9 1.3 1.3 0 2.2-.5 2.8-1.2zM45.3 22.7v6.4h-2.5v-6.4c0-1.1-.8-2.3-2.3-2.3-1.2 0-2 .6-2.4 1.8v6.9h-2.5V13.7H38V19c.8-.6 1.8-1 2.9-1 1.3 0 2.4.5 3.2 1.3.8.8 1.2 2 1.2 3.4zM41.5.2v2.5H38v8.4h-2.6V.2zM31.5 5.6c0 1.5-.6 3-1.6 4-1.1 1-2.5 1.6-4.1 1.6-1.6 0-3-.6-4-1.6s-1.6-2.5-1.6-4c0-3.2 2.4-5.6 5.7-5.6s5.6 2.4 5.6 5.6zm-2.7 0c0-1.8-1.3-3.1-3-3.1s-3 1.3-3 3.1 1.3 3.1 3 3.1c1.8.1 3-1.2 3-3.1zM30.8 19.8l-1.7 1.9-.1-.1c-.4-.5-1.2-1.1-2.4-1.1-1.7 0-3 1.3-3 3.1s1.2 3.1 3 3.1c1.2 0 1.9-.6 2.4-1.1l.1-.1 1.8 1.8-.1.1c-1.1 1.2-2.5 1.8-4.2 1.8-3.2 0-5.6-2.4-5.6-5.6 0-3.2 2.4-5.6 5.6-5.6 1.7 0 3.1.6 4.2 1.8zM16.3.2v10.9h-2.5V2.7H9.5v8.4H6.9V2.7H2.6v8.4H0V.2z"/>
    </g>

    <g id="sm-twitter" class="sm-icons__g sm-icons__g--twitter">
      <circle class="sm-icons__circle" cx="20" cy="20" r="20"/>
      <circle class="sm-icons__border" cx="20" cy="20" r="19"/>
      <path class="sm-icons__brand" d="M27.944 16.426A8.811 8.811 0 0030 14.307a8.217 8.217 0 01-2.36.634 4.088 4.088 0 001.8-2.259 8.07 8.07 0 01-2.6.99 4.089 4.089 0 00-2.995-1.294 4.1 4.1 0 00-4.1 4.1 4.627 4.627 0 00.1.939 11.651 11.651 0 01-8.445-4.29 4.068 4.068 0 00-.562 2.073 4.1 4.1 0 001.827 3.409 4.128 4.128 0 01-1.853-.52v.051a4.1 4.1 0 003.288 4.022 4.334 4.334 0 01-1.08.138 5.166 5.166 0 01-.774-.063 4.106 4.106 0 003.833 2.844 8.209 8.209 0 01-5.089 1.752 8.483 8.483 0 01-.99-.051 11.583 11.583 0 006.294 1.84 11.582 11.582 0 0011.663-11.663c0-.177 0-.359-.013-.533z"/>
    </g>

    <g id="sm-instagram" class="sm-icons__g sm-icons__g--instagram">
      <circle class="sm-icons__circle" cx="20" cy="20" r="20"/>
      <circle class="sm-icons__border" cx="20" cy="20" r="19"/>
      <path class="sm-icons__brand" d="M20 16.008a4.481 4.481 0 00-4.484 4.492A4.481 4.481 0 0020 24.984a4.481 4.481 0 004.492-4.484A4.481 4.481 0 0020 16.008zm0 7.406a2.923 2.923 0 01-2.914-2.914A2.921 2.921 0 0120 17.578a2.921 2.921 0 012.922 2.922A2.923 2.923 0 0120 23.414zm5.719-7.59a1.047 1.047 0 00-1.047-1.047 1.047 1.047 0 00-1.047 1.047 1.044 1.044 0 001.047 1.047 1.044 1.044 0 001.051-1.047zm2.981 1.063a5.181 5.181 0 00-1.414-3.668 5.215 5.215 0 00-3.673-1.419c-1.445-.082-5.777-.082-7.223 0a5.207 5.207 0 00-3.668 1.41 5.2 5.2 0 00-1.414 3.668c-.082 1.445-.082 5.777 0 7.223a5.181 5.181 0 001.415 3.672 5.221 5.221 0 003.668 1.415c1.445.082 5.777.082 7.223 0a5.181 5.181 0 003.667-1.415 5.215 5.215 0 001.419-3.668c.077-1.445.077-5.773 0-7.218zm-1.872 8.769a2.954 2.954 0 01-1.664 1.664c-1.152.457-3.887.352-5.164.352s-4.012.1-5.16-.352a2.954 2.954 0 01-1.66-1.664c-.457-1.156-.352-3.886-.352-5.156s-.1-4.012.352-5.16a2.954 2.954 0 011.664-1.664C16 13.215 18.73 13.32 20 13.32s4.012-.1 5.16.352a2.954 2.954 0 011.664 1.664c.457 1.152.352 3.887.352 5.16s.109 4.012-.348 5.16z"/>
    </g>

    <g id="sm-facebook" class="sm-icons__g sm-icons__g--facebook">
      <circle class="sm-icons__circle" cx="20" cy="20" r="20"/>
      <circle class="sm-icons__border" cx="20" cy="20" r="19"/>
      <path class="sm-icons__brand" d="M24.654 21.75l.555-3.62h-3.473v-2.349a1.81 1.81 0 012.041-1.955h1.579v-3.082a19.255 19.255 0 00-2.8-.245c-2.86 0-4.73 1.734-4.73 4.872v2.759h-3.182v3.62h3.179v8.75h3.913v-8.75z"/>
    </g>

    <g id="arrow-left" class="slider-arrow__g">
      <path d="M5.3 152.18L152 5.31a18.11 18.11 0 0125.62 0l17.1 17.13a18.15 18.15 0 010 25.62L78.49 165l116.24 116.94a18.15 18.15 0 010 25.62l-17.1 17.13a18.11 18.11 0 01-25.62 0L5.31 177.82a18.14 18.14 0 01-.01-25.64z"/>
    </g>

    <g id="arrow-right" class="slider-arrow__g">
      <path d="M194.7 177.82L48 324.69a18.11 18.11 0 01-25.62 0L5.31 307.56a18.15 18.15 0 010-25.62L121.51 165 5.27 48.06a18.15 18.15 0 010-25.62L22.41 5.31a18.11 18.11 0 0125.59 0l146.69 146.87a18.14 18.14 0 01.01 25.64z"/>
    </g>

    <g id="placeholder">
      <path fill="#fff" d="M0 0h455v273H0z"/>
      <path fill="#000" d="M377.5 139.5v4.88h-6.75v15.75h-4.87V139.5h11.62z"/>
      <path d="M357.25 149.81v1.5h-15.19a5.47 5.47 0 005.44 4.31 6.43 6.43 0 005.06-2.25l.19-.18 3.37 3.56-.18.19a11 11 0 01-8.44 3.56A10.25 10.25 0 01337 150a10.25 10.25 0 0110.5-10.5 9.07 9.07 0 016.94 2.81 10.48 10.48 0 012.81 7.5zm-15-2.44H352a4.49 4.49 0 00-4.69-3.56 5.08 5.08 0 00-5.06 3.56zm-18.94-7.87h4.88v20.63h-4.88zm0-8.63h4.88v5.06h-4.88zm-8.06 8.63l-1.12 4.5h-5.07v8.81c0 1.88.38 2.82 2.63 2.82h3v4.5h-4.13c-3.93 0-6.37-2.44-6.37-6.38V144h-2.81l-1.13-4.5h3.94v-3.75l4.87-2.44v6.19zm-21.56 8.63v12h-4.88v-12a4.23 4.23 0 00-4.31-4.32 4.42 4.42 0 00-4.5 3.38v12.94h-4.87V139.5H280v1.69a8.25 8.25 0 015.44-1.88 8.8 8.8 0 016.19 2.44 9.65 9.65 0 012.06 6.38zm-27.38 1.68v1.5h-15.19a5.48 5.48 0 005.44 4.31 6.4 6.4 0 005.06-2.25l.19-.18 3.38 3.56-.19.19a11 11 0 01-8.44 3.56 10.25 10.25 0 01-10.5-10.5 10.25 10.25 0 0110.5-10.5 9.06 9.06 0 016.94 2.81 10.48 10.48 0 012.81 7.5zm-15-2.44h9.75a4.49 4.49 0 00-4.69-3.56 5.08 5.08 0 00-5.06 3.56zm-23.25-8.06a10.5 10.5 0 010 21 8.94 8.94 0 01-5.06-1.5v8.63h-4.87V139.5H223v1.31a8.94 8.94 0 015.06-1.5zm5.44 10.5a6.27 6.27 0 00-.19-1.87c0-.19 0-.19-.18-.38v-.19a5.54 5.54 0 00-3.94-3.37h-2.63a11.33 11.33 0 00-2.25.94 4 4 0 00-.93.75l-.19.18-.38.38V153a.41.41 0 00.38.38l.19.18a1.78 1.78 0 00.93.75 8.14 8.14 0 002.25.94h2.63a5.21 5.21 0 003.94-3.37v-.19c0-.19 0-.19.18-.38s.19-.94.19-1.5zm-23.44-10.31v4.88h-6.56v15.75h-4.87V139.5h11.43zm-21.37 0v20.63h-4.88v-1.5a9.22 9.22 0 01-5.62 1.87 9 9 0 01-6-2.06 6.79 6.79 0 01-2.06-4.88 5.79 5.79 0 012.25-4.87 9.91 9.91 0 016-1.88 15.48 15.48 0 015.25.94V144h-11.07v-4.5zm-4.88 14.25v-1.69a9.11 9.11 0 00-4.68-1.12c-2.44 0-4.13.94-4.13 2.62 0 1.32.94 2.44 3.56 2.44a6.58 6.58 0 005.25-2.25zm-21.37-5.62v12h-4.69v-12a4.23 4.23 0 00-4.31-4.32 4.42 4.42 0 00-4.5 3.38v12.94h-4.69v-28.88h4.5v9.94a9 9 0 015.44-1.88 8.34 8.34 0 016 2.44 8.83 8.83 0 012.25 6.38zm-7.13-42.19v4.69h-6.56v15.75h-4.87v-20.44h11.43zm-18.75 10.12a10.77 10.77 0 01-3 7.5 11.24 11.24 0 01-7.69 3 10.46 10.46 0 01-7.5-3 10.8 10.8 0 01-3-7.5 10.3 10.3 0 0110.69-10.5 10.14 10.14 0 0110.5 10.5zm-5.06 0a5.63 5.63 0 10-5.63 5.81c3.38.19 5.63-2.25 5.63-5.81zm3.75 26.63l-3.19 3.56-.18-.19a5.74 5.74 0 00-4.5-2.06 5.57 5.57 0 00-5.63 5.81 5.47 5.47 0 005.63 5.82 6 6 0 004.5-2.07l.18-.19 3.38 3.38-.19.19a10.51 10.51 0 110-14.25zm-27.19-36.75v20.44h-4.68v-15.75h-8.07v15.75h-4.87v-15.75h-8.06v15.75H77.5v-20.44h30.56z" fill="#000"/>
    </g>

  </defs>
</svg>